<?xml version="1.0" encoding="UTF-8"?><svg xmlns="http://www.w3.org/2000/svg" xmlns:xlink="http://www.w3.org/1999/xlink" fill-opacity="1" color-rendering="auto" color-interpolation="auto" text-rendering="auto" stroke="black" stroke-linecap="square" width="856" stroke-miterlimit="10" shape-rendering="auto" stroke-opacity="1" fill="black" stroke-dasharray="none" font-weight="normal" stroke-width="1" height="383" font-family="'Dialog'" font-style="normal" stroke-linejoin="miter" font-size="12px" stroke-dashoffset="0" image-rendering="auto">
  <!--Generated by ySVG 2.5-->
  <defs id="genericDefs"/>
  <g>
    <defs id="defs1">
      <clipPath clipPathUnits="userSpaceOnUse" id="clipPath1">
        <path d="M0 0 L856 0 L856 383 L0 383 L0 0 Z"/>
      </clipPath>
      <clipPath clipPathUnits="userSpaceOnUse" id="clipPath2">
        <path d="M494 332 L1350 332 L1350 715 L494 715 L494 332 Z"/>
      </clipPath>
    </defs>
    <g fill="white" text-rendering="geometricPrecision" shape-rendering="geometricPrecision" transform="translate(-494,-332)" stroke="white">
      <rect x="494" width="856" height="383" y="332" clip-path="url(#clipPath2)" stroke="none"/>
    </g>
    <g fill="rgb(212,231,205)" text-rendering="geometricPrecision" shape-rendering="geometricPrecision" transform="matrix(1,0,0,1,-494,-332)" stroke="rgb(212,231,205)">
      <rect x="539.8195" width="232" height="96" y="430.87" clip-path="url(#clipPath2)" stroke="none"/>
    </g>
    <g text-rendering="geometricPrecision" stroke-miterlimit="1.45" shape-rendering="geometricPrecision" transform="matrix(1,0,0,1,-494,-332)" stroke-linecap="butt">
      <rect fill="none" x="539.8195" width="232" height="96" y="430.87" clip-path="url(#clipPath2)"/>
      <text x="560.5891" font-size="16px" y="456.3348" clip-path="url(#clipPath2)" font-family="sans-serif" stroke="none" xml:space="preserve">ConfigMonitoringService</text>
    </g>
    <g fill="rgb(212,204,230)" text-rendering="geometricPrecision" shape-rendering="geometricPrecision" transform="matrix(1,0,0,1,-494,-332)" stroke="rgb(212,204,230)">
      <rect x="582.8195" width="146" height="43" y="472.87" clip-path="url(#clipPath2)" stroke="none"/>
    </g>
    <g text-rendering="geometricPrecision" stroke-miterlimit="1.45" shape-rendering="geometricPrecision" transform="matrix(1,0,0,1,-494,-332)" stroke-linecap="butt">
      <rect fill="none" x="582.8195" width="146" height="43" y="472.87" clip-path="url(#clipPath2)"/>
      <text x="599.4719" font-size="16px" y="500.4168" clip-path="url(#clipPath2)" font-family="sans-serif" stroke="none" xml:space="preserve">GnmiPublisher</text>
    </g>
    <g fill="rgb(201,222,241)" text-rendering="geometricPrecision" shape-rendering="geometricPrecision" transform="matrix(1,0,0,1,-494,-332)" stroke="rgb(201,222,241)">
      <rect x="539.8195" width="232" height="30" y="400.87" clip-path="url(#clipPath2)" stroke="none"/>
    </g>
    <g text-rendering="geometricPrecision" stroke-miterlimit="1.45" shape-rendering="geometricPrecision" transform="matrix(1,0,0,1,-494,-332)" stroke-linecap="butt">
      <rect fill="none" x="539.8195" width="232" height="30" y="400.87" clip-path="url(#clipPath2)"/>
      <text x="586.3156" font-size="16px" y="421.9168" clip-path="url(#clipPath2)" font-family="sans-serif" stroke="none" xml:space="preserve">gNMI Service Stub</text>
    </g>
    <g fill="rgb(212,204,230)" text-rendering="geometricPrecision" shape-rendering="geometricPrecision" transform="matrix(1,0,0,1,-494,-332)" stroke="rgb(212,204,230)">
      <rect x="917.5781" width="232" height="179.3928" y="347.4772" clip-path="url(#clipPath2)" stroke="none"/>
    </g>
    <g text-rendering="geometricPrecision" stroke-miterlimit="1.45" shape-rendering="geometricPrecision" transform="matrix(1,0,0,1,-494,-332)" stroke-linecap="butt">
      <rect fill="none" x="917.5781" width="232" height="179.3928" y="347.4772" clip-path="url(#clipPath2)"/>
      <text x="977.2305" font-size="16px" y="374.6186" clip-path="url(#clipPath2)" font-family="sans-serif" stroke="none" xml:space="preserve">GnmiPublisher</text>
    </g>
    <g fill="rgb(212,231,205)" text-rendering="geometricPrecision" shape-rendering="geometricPrecision" transform="matrix(1,0,0,1,-494,-332)" stroke="rgb(212,231,205)">
      <rect x="947.2413" width="172.6737" height="30" y="383.6334" clip-path="url(#clipPath2)" stroke="none"/>
    </g>
    <g text-rendering="geometricPrecision" stroke-miterlimit="1.45" shape-rendering="geometricPrecision" transform="matrix(1,0,0,1,-494,-332)" stroke-linecap="butt">
      <rect fill="none" x="947.2413" width="172.6737" height="30" y="383.6334" clip-path="url(#clipPath2)"/>
      <text x="980.2666" xml:space="preserve" y="403.1685" clip-path="url(#clipPath2)" font-family="sans-serif" stroke="none">gNMI event reader</text>
    </g>
    <g fill="rgb(255,240,197)" text-rendering="geometricPrecision" shape-rendering="geometricPrecision" transform="matrix(1,0,0,1,-494,-332)" stroke="rgb(255,240,197)">
      <rect x="930.5403" width="206.0756" height="77.2398" y="434.6905" clip-path="url(#clipPath2)" stroke="none"/>
    </g>
    <g text-rendering="geometricPrecision" stroke-miterlimit="1.45" shape-rendering="geometricPrecision" transform="matrix(1,0,0,1,-494,-332)" stroke-linecap="butt">
      <rect fill="none" x="930.5403" width="206.0756" height="77.2398" y="434.6905" clip-path="url(#clipPath2)"/>
      <text x="990.6406" xml:space="preserve" y="456.6115" clip-path="url(#clipPath2)" font-family="sans-serif" stroke="none">YangParseTree</text>
    </g>
    <g fill="rgb(212,231,205)" text-rendering="geometricPrecision" shape-rendering="geometricPrecision" transform="matrix(1,0,0,1,-494,-332)" stroke="rgb(212,231,205)">
      <rect x="947.2413" width="172.6737" height="30" y="467.9586" clip-path="url(#clipPath2)" stroke="none"/>
    </g>
    <g text-rendering="geometricPrecision" stroke-miterlimit="1.45" shape-rendering="geometricPrecision" transform="matrix(1,0,0,1,-494,-332)" stroke-linecap="butt">
      <rect fill="none" x="947.2413" width="172.6737" height="30" y="467.9586" clip-path="url(#clipPath2)"/>
      <text x="982.0977" xml:space="preserve" y="487.4938" clip-path="url(#clipPath2)" font-family="sans-serif" stroke="none">gNMI event writer</text>
    </g>
    <g fill="rgb(255,240,197)" text-rendering="geometricPrecision" shape-rendering="geometricPrecision" transform="matrix(1,0,0,1,-494,-332)" stroke="rgb(255,240,197)">
      <rect x="1201.1239" width="133.163" height="30" y="467.9586" clip-path="url(#clipPath2)" stroke="none"/>
    </g>
    <g text-rendering="geometricPrecision" stroke-miterlimit="1.45" shape-rendering="geometricPrecision" transform="matrix(1,0,0,1,-494,-332)" stroke-linecap="butt">
      <rect fill="none" x="1201.1239" width="133.163" height="30" y="467.9586" clip-path="url(#clipPath2)"/>
      <text x="1209.1117" xml:space="preserve" y="487.4938" clip-path="url(#clipPath2)" font-family="sans-serif" stroke="none">YangParseTreePaths</text>
    </g>
    <g fill="rgb(201,222,241)" text-rendering="geometricPrecision" shape-rendering="geometricPrecision" transform="matrix(1,0,0,1,-494,-332)" stroke="rgb(201,222,241)">
      <rect x="539.8195" width="232" height="30" y="604.5154" clip-path="url(#clipPath2)" stroke="none"/>
    </g>
    <g text-rendering="geometricPrecision" stroke-miterlimit="1.45" shape-rendering="geometricPrecision" transform="matrix(1,0,0,1,-494,-332)" stroke-linecap="butt">
      <rect fill="none" x="539.8195" width="232" height="30" y="604.5154" clip-path="url(#clipPath2)"/>
      <text x="594.5422" font-size="16px" y="625.5623" clip-path="url(#clipPath2)" font-family="sans-serif" stroke="none" xml:space="preserve">Switch Interface</text>
      <text x="647.9105" xml:space="preserve" y="659.0505" clip-path="url(#clipPath2)" font-family="sans-serif" stroke="none">Reference (pointor)</text>
      <text x="645.3982" xml:space="preserve" y="689.0505" clip-path="url(#clipPath2)" font-family="sans-serif" stroke="none">Call static methods</text>
      <path fill="none" d="M728.8195 494.37 L917.5652 349.2607" clip-path="url(#clipPath2)"/>
      <path fill="none" d="M728.8195 494.37 L917.5741 525.5579" clip-path="url(#clipPath2)"/>
      <path fill="none" d="M947.2413 482.9586 L905.8146 482.9586 L905.8146 398.6334 L939.2413 398.6334" clip-path="url(#clipPath2)"/>
      <path d="M947.2413 398.6334 L935.2413 393.6334 L938.2413 398.6334 L935.2413 403.6334 Z" clip-path="url(#clipPath2)" stroke="none"/>
      <text x="868.3088" xml:space="preserve" y="431.1983" clip-path="url(#clipPath2)" font-family="sans-serif" stroke="none">gNMI</text>
      <text x="866.9318" xml:space="preserve" y="445.3311" clip-path="url(#clipPath2)" font-family="sans-serif" stroke="none">event</text>
      <text x="853.1799" xml:space="preserve" y="459.464" clip-path="url(#clipPath2)" font-family="sans-serif" stroke="none">channel</text>
      <path fill="none" stroke-dasharray="6,2" d="M1136.6416 482.9586 L1193.0924 482.9586" clip-path="url(#clipPath2)"/>
      <path stroke-dasharray="6,2" d="M1201.0924 482.9586 L1189.0924 477.9586 L1192.0924 482.9586 L1189.0924 487.9586 Z" clip-path="url(#clipPath2)" stroke="none"/>
      <path fill="none" d="M655.8195 526.8699 L655.8195 596.4775" clip-path="url(#clipPath2)"/>
      <path d="M655.8195 604.4775 L660.8195 592.4775 L655.8195 595.4775 L650.8195 592.4775 Z" clip-path="url(#clipPath2)" stroke="none"/>
      <path fill="none" d="M1033.5781 511.9303 L1033.5781 611.323 L779.8427 611.323" clip-path="url(#clipPath2)"/>
      <path d="M771.8427 611.323 L783.8427 616.323 L780.8427 611.323 L783.8427 606.323 Z" clip-path="url(#clipPath2)" stroke="none"/>
      <path fill="none" d="M771.8419 626.5472 L1165.4052 626.5472 L1165.4052 489.7186 L1127.9307 489.7186" clip-path="url(#clipPath2)"/>
      <path d="M1119.9307 489.7186 L1131.9307 494.7186 L1128.9307 489.7186 L1131.9307 484.7186 Z" clip-path="url(#clipPath2)" stroke="none"/>
      <path fill="none" stroke-dasharray="6,2" d="M539.8195 684.5154 L622.5947 684.5154" clip-path="url(#clipPath2)"/>
      <path stroke-dasharray="6,2" d="M630.5947 684.5154 L618.5947 679.5154 L621.5947 684.5154 L618.5947 689.5154 Z" clip-path="url(#clipPath2)" stroke="none"/>
      <path fill="none" d="M539.8195 654.5154 L622.5947 654.5154" clip-path="url(#clipPath2)"/>
      <path d="M630.5947 654.5154 L618.5947 649.5154 L621.5947 654.5154 L618.5947 659.5154 Z" clip-path="url(#clipPath2)" stroke="none"/>
    </g>
  </g>
</svg>
