<?xml version="1.0" encoding="UTF-8"?><svg xmlns="http://www.w3.org/2000/svg" xmlns:xlink="http://www.w3.org/1999/xlink" fill-opacity="1" color-rendering="auto" color-interpolation="auto" text-rendering="auto" stroke="black" stroke-linecap="square" width="853" stroke-miterlimit="10" shape-rendering="auto" stroke-opacity="1" fill="black" stroke-dasharray="none" font-weight="normal" stroke-width="1" height="551" font-family="'Dialog'" font-style="normal" stroke-linejoin="miter" font-size="12px" stroke-dashoffset="0" image-rendering="auto">
  <!--Generated by ySVG 2.5-->
  <defs id="genericDefs"/>
  <g>
    <defs id="defs1">
      <clipPath clipPathUnits="userSpaceOnUse" id="clipPath1">
        <path d="M0 0 L853 0 L853 551 L0 551 L0 0 Z"/>
      </clipPath>
      <clipPath clipPathUnits="userSpaceOnUse" id="clipPath2">
        <path d="M-15 -15 L838 -15 L838 536 L-15 536 L-15 -15 Z"/>
      </clipPath>
    </defs>
    <g fill="white" text-rendering="geometricPrecision" shape-rendering="geometricPrecision" transform="translate(15,15)" stroke="white">
      <rect x="-15" width="853" height="551" y="-15" clip-path="url(#clipPath2)" stroke="none"/>
    </g>
    <g fill="rgb(201,222,241)" text-rendering="geometricPrecision" shape-rendering="geometricPrecision" transform="matrix(1,0,0,1,15,15)" stroke="rgb(201,222,241)">
      <rect x="0" y="0" clip-path="url(#clipPath2)" width="152" rx="4" ry="4" height="57" stroke="none"/>
    </g>
    <g text-rendering="geometricPrecision" stroke-miterlimit="1.45" shape-rendering="geometricPrecision" transform="matrix(1,0,0,1,15,15)" stroke-linecap="butt">
      <rect x="0" y="0" clip-path="url(#clipPath2)" fill="none" width="152" rx="4" ry="4" height="57"/>
      <text x="34.582" font-size="16px" y="34.5469" clip-path="url(#clipPath2)" font-family="sans-serif" stroke="none" xml:space="preserve">GnmiEvent</text>
    </g>
    <g fill="rgb(201,222,241)" text-rendering="geometricPrecision" shape-rendering="geometricPrecision" transform="matrix(1,0,0,1,15,15)" stroke="rgb(201,222,241)">
      <rect x="0" y="97" clip-path="url(#clipPath2)" width="152" rx="4" ry="4" height="57" stroke="none"/>
    </g>
    <g text-rendering="geometricPrecision" stroke-miterlimit="1.45" shape-rendering="geometricPrecision" transform="matrix(1,0,0,1,15,15)" stroke-linecap="butt">
      <rect x="0" y="97" clip-path="url(#clipPath2)" fill="none" width="152" rx="4" ry="4" height="57"/>
      <text x="34.582" font-size="16px" y="122.125" clip-path="url(#clipPath2)" font-family="sans-serif" stroke="none" xml:space="preserve">GnmiEvent</text>
      <text x="46.6797" font-size="16px" y="140.9688" clip-path="url(#clipPath2)" font-family="sans-serif" stroke="none" xml:space="preserve">Process</text>
    </g>
    <g fill="rgb(201,222,241)" text-rendering="geometricPrecision" shape-rendering="geometricPrecision" transform="matrix(1,0,0,1,15,15)" stroke="rgb(201,222,241)">
      <rect x="258" y="388" clip-path="url(#clipPath2)" width="152" rx="4" ry="4" height="57" stroke="none"/>
    </g>
    <g text-rendering="geometricPrecision" stroke-miterlimit="1.45" shape-rendering="geometricPrecision" transform="matrix(1,0,0,1,15,15)" stroke-linecap="butt">
      <rect x="258" y="388" clip-path="url(#clipPath2)" fill="none" width="152" rx="4" ry="4" height="57"/>
      <text x="290.5391" font-size="16px" y="422.5469" clip-path="url(#clipPath2)" font-family="sans-serif" stroke="none" xml:space="preserve">TimerEvent</text>
    </g>
    <g fill="rgb(201,222,241)" text-rendering="geometricPrecision" shape-rendering="geometricPrecision" transform="matrix(1,0,0,1,15,15)" stroke="rgb(201,222,241)">
      <rect x="86" y="388" clip-path="url(#clipPath2)" width="152" rx="4" ry="4" height="57" stroke="none"/>
    </g>
    <g text-rendering="geometricPrecision" stroke-miterlimit="1.45" shape-rendering="geometricPrecision" transform="matrix(1,0,0,1,15,15)" stroke-linecap="butt">
      <rect x="86" y="388" clip-path="url(#clipPath2)" fill="none" width="152" rx="4" ry="4" height="57"/>
      <text x="127.1484" font-size="16px" y="422.5469" clip-path="url(#clipPath2)" font-family="sans-serif" stroke="none" xml:space="preserve">PollEvent</text>
    </g>
    <g fill="rgb(201,222,241)" text-rendering="geometricPrecision" shape-rendering="geometricPrecision" transform="matrix(1,0,0,1,15,15)" stroke="rgb(201,222,241)">
      <rect x="554" y="194" clip-path="url(#clipPath2)" width="152" rx="4" ry="4" height="57" stroke="none"/>
    </g>
    <g text-rendering="geometricPrecision" stroke-miterlimit="1.45" shape-rendering="geometricPrecision" transform="matrix(1,0,0,1,15,15)" stroke-linecap="butt">
      <rect x="554" y="194" clip-path="url(#clipPath2)" fill="none" width="152" rx="4" ry="4" height="57"/>
      <text x="586.1172" font-size="16px" y="228.5469" clip-path="url(#clipPath2)" font-family="sans-serif" stroke="none" xml:space="preserve">AlarmEvent</text>
    </g>
    <g fill="rgb(201,222,241)" text-rendering="geometricPrecision" shape-rendering="geometricPrecision" transform="matrix(1,0,0,1,15,15)" stroke="rgb(201,222,241)">
      <rect x="178.75" y="194" clip-path="url(#clipPath2)" width="152" rx="4" ry="4" height="57" stroke="none"/>
    </g>
    <g text-rendering="geometricPrecision" stroke-miterlimit="1.45" shape-rendering="geometricPrecision" transform="matrix(1,0,0,1,15,15)" stroke-linecap="butt">
      <rect x="178.75" y="194" clip-path="url(#clipPath2)" fill="none" width="152" rx="4" ry="4" height="57"/>
      <text x="185.5781" font-size="16px" y="228.5469" clip-path="url(#clipPath2)" font-family="sans-serif" stroke="none" xml:space="preserve">PerPortGnmiEvent</text>
    </g>
    <g fill="rgb(201,222,241)" text-rendering="geometricPrecision" shape-rendering="geometricPrecision" transform="matrix(1,0,0,1,15,15)" stroke="rgb(201,222,241)">
      <rect x="430" y="388" clip-path="url(#clipPath2)" width="139" rx="4" ry="4" height="57" stroke="none"/>
    </g>
    <g text-rendering="geometricPrecision" stroke-miterlimit="1.45" shape-rendering="geometricPrecision" transform="matrix(1,0,0,1,15,15)" stroke-linecap="butt">
      <rect x="430" y="388" clip-path="url(#clipPath2)" fill="none" width="139" rx="4" ry="4" height="57"/>
      <text x="440.9883" font-size="16px" y="413.125" clip-path="url(#clipPath2)" font-family="sans-serif" stroke="none" xml:space="preserve">ConfigHasBeen</text>
      <text x="450.6875" font-size="16px" y="431.9688" clip-path="url(#clipPath2)" font-family="sans-serif" stroke="none" xml:space="preserve">PushedEvent</text>
    </g>
    <g fill="rgb(201,222,241)" text-rendering="geometricPrecision" shape-rendering="geometricPrecision" transform="matrix(1,0,0,1,15,15)" stroke="rgb(201,222,241)">
      <rect x="650" y="291" clip-path="url(#clipPath2)" width="173" rx="4" ry="4" height="57" stroke="none"/>
    </g>
    <g text-rendering="geometricPrecision" stroke-miterlimit="1.45" shape-rendering="geometricPrecision" transform="matrix(1,0,0,1,15,15)" stroke-linecap="butt">
      <rect x="650" y="291" clip-path="url(#clipPath2)" fill="none" width="173" rx="4" ry="4" height="57"/>
      <text x="663.2539" font-size="16px" y="325.5469" clip-path="url(#clipPath2)" font-family="sans-serif" stroke="none" xml:space="preserve">MemoryErrorAlarm</text>
    </g>
    <g fill="rgb(201,222,241)" text-rendering="geometricPrecision" shape-rendering="geometricPrecision" transform="matrix(1,0,0,1,15,15)" stroke="rgb(201,222,241)">
      <rect x="437" y="291" clip-path="url(#clipPath2)" width="173" rx="4" ry="4" height="57" stroke="none"/>
    </g>
    <g text-rendering="geometricPrecision" stroke-miterlimit="1.45" shape-rendering="geometricPrecision" transform="matrix(1,0,0,1,15,15)" stroke-linecap="butt">
      <rect x="437" y="291" clip-path="url(#clipPath2)" fill="none" width="173" rx="4" ry="4" height="57"/>
      <text x="448.9102" font-size="16px" y="316.125" clip-path="url(#clipPath2)" font-family="sans-serif" stroke="none" xml:space="preserve">FlowProgrammaing</text>
      <text x="462.4922" font-size="16px" y="334.9688" clip-path="url(#clipPath2)" font-family="sans-serif" stroke="none" xml:space="preserve">ExceptionAlarm</text>
    </g>
    <g fill="rgb(201,222,241)" text-rendering="geometricPrecision" shape-rendering="geometricPrecision" transform="matrix(1,0,0,1,15,15)" stroke="rgb(201,222,241)">
      <rect x="278" y="291" clip-path="url(#clipPath2)" width="139" rx="4" ry="4" height="57" stroke="none"/>
    </g>
    <g text-rendering="geometricPrecision" stroke-miterlimit="1.45" shape-rendering="geometricPrecision" transform="matrix(1,0,0,1,15,15)" stroke-linecap="butt">
      <rect x="278" y="291" clip-path="url(#clipPath2)" fill="none" width="139" rx="4" ry="4" height="57"/>
      <text x="293.75" font-size="16px" y="316.125" clip-path="url(#clipPath2)" font-family="sans-serif" stroke="none" xml:space="preserve">PortOperState</text>
      <text x="292.2461" font-size="16px" y="334.9688" clip-path="url(#clipPath2)" font-family="sans-serif" stroke="none" xml:space="preserve">ChangedEvent</text>
    </g>
    <g fill="rgb(201,222,241)" text-rendering="geometricPrecision" shape-rendering="geometricPrecision" transform="matrix(1,0,0,1,15,15)" stroke="rgb(201,222,241)">
      <rect x="86" y="291" clip-path="url(#clipPath2)" width="152" rx="4" ry="4" height="57" stroke="none"/>
    </g>
    <g text-rendering="geometricPrecision" stroke-miterlimit="1.45" shape-rendering="geometricPrecision" transform="matrix(1,0,0,1,15,15)" stroke-linecap="butt">
      <rect x="86" y="291" clip-path="url(#clipPath2)" fill="none" width="152" rx="4" ry="4" height="57"/>
      <text x="101.9297" font-size="16px" y="316.125" clip-path="url(#clipPath2)" font-family="sans-serif" stroke="none" xml:space="preserve">PortAdminState</text>
      <text x="106.7461" font-size="16px" y="334.9688" clip-path="url(#clipPath2)" font-family="sans-serif" stroke="none" xml:space="preserve">ChangedEvent</text>
      <text x="240.3125" font-size="16px" y="325.5469" clip-path="url(#clipPath2)" font-family="sans-serif" stroke="none" xml:space="preserve">......</text>
    </g>
    <g fill="rgb(201,222,241)" text-rendering="geometricPrecision" shape-rendering="geometricPrecision" transform="matrix(1,0,0,1,15,15)" stroke="rgb(201,222,241)">
      <rect x="0" y="485" clip-path="url(#clipPath2)" width="30" rx="4" ry="4" height="30" stroke="none"/>
    </g>
    <g text-rendering="geometricPrecision" stroke-miterlimit="1.45" shape-rendering="geometricPrecision" transform="matrix(1,0,0,1,15,15)" stroke-linecap="butt">
      <rect x="0" y="485" clip-path="url(#clipPath2)" fill="none" width="30" rx="4" ry="4" height="30"/>
    </g>
    <g fill="rgb(201,222,241)" text-rendering="geometricPrecision" shape-rendering="geometricPrecision" transform="matrix(1,0,0,1,15,15)" stroke="rgb(201,222,241)">
      <rect x="207.75" y="485" clip-path="url(#clipPath2)" width="30" rx="4" ry="4" height="30" stroke="none"/>
    </g>
    <g text-rendering="geometricPrecision" stroke-miterlimit="1.45" shape-rendering="geometricPrecision" transform="matrix(1,0,0,1,15,15)" stroke-linecap="butt">
      <rect x="207.75" y="485" clip-path="url(#clipPath2)" fill="none" width="30" rx="4" ry="4" height="30"/>
      <path fill="none" d="M76 97.0347 L76 64.978" clip-path="url(#clipPath2)"/>
      <path d="M76 56.978 L71 68.978 L76 65.978 L81 68.978 Z" clip-path="url(#clipPath2)" stroke="none"/>
      <path fill="none" d="M334 388.0347 L334 368 L76 368 L76 162.0068" clip-path="url(#clipPath2)"/>
      <path d="M76 154.0068 L71 166.0068 L76 163.0068 L81 166.0068 Z" clip-path="url(#clipPath2)" stroke="none"/>
      <path fill="none" d="M162 388.0347 L162 368 L76 368 L76 162.0068" clip-path="url(#clipPath2)"/>
      <path d="M76 154.0068 L71 166.0068 L76 163.0068 L81 166.0068 Z" clip-path="url(#clipPath2)" stroke="none"/>
      <path fill="none" d="M630 194.0347 L630 174 L76 174 L76 161.9653" clip-path="url(#clipPath2)"/>
      <path d="M76 153.9653 L71 165.9653 L76 162.9653 L81 165.9653 Z" clip-path="url(#clipPath2)" stroke="none"/>
      <path fill="none" d="M254.75 194.0347 L254.75 174 L76 174 L76 161.9653" clip-path="url(#clipPath2)"/>
      <path d="M76 153.9653 L71 165.9653 L76 162.9653 L81 165.9653 Z" clip-path="url(#clipPath2)" stroke="none"/>
      <path fill="none" d="M499.5 388.0347 L499.5 368 L76 368 L76 162.0068" clip-path="url(#clipPath2)"/>
      <path d="M76 154.0068 L71 166.0068 L76 163.0068 L81 166.0068 Z" clip-path="url(#clipPath2)" stroke="none"/>
      <path fill="none" d="M736.5 291.0347 L736.5 271 L630 271 L630 258.9653" clip-path="url(#clipPath2)"/>
      <path d="M630 250.9653 L625 262.9653 L630 259.9653 L635 262.9653 Z" clip-path="url(#clipPath2)" stroke="none"/>
      <path fill="none" d="M523.5 291.0347 L523.5 271 L630 271 L630 258.9653" clip-path="url(#clipPath2)"/>
      <path d="M630 250.9653 L625 262.9653 L630 259.9653 L635 262.9653 Z" clip-path="url(#clipPath2)" stroke="none"/>
      <path fill="none" d="M347.5 291.0347 L347.5 271 L254.75 271 L254.75 258.9653" clip-path="url(#clipPath2)"/>
      <path d="M254.75 250.9653 L249.75 262.9653 L254.75 259.9653 L259.75 262.9653 Z" clip-path="url(#clipPath2)" stroke="none"/>
      <path fill="none" d="M162 291.0347 L162 271 L254.75 271 L254.75 258.9653" clip-path="url(#clipPath2)"/>
      <path d="M254.75 250.9653 L249.75 262.9653 L254.75 259.9653 L259.75 262.9653 Z" clip-path="url(#clipPath2)" stroke="none"/>
      <path fill="none" d="M30 500 L199.7066 500" clip-path="url(#clipPath2)"/>
      <path d="M207.7066 500 L195.7066 495 L198.7066 500 L195.7066 505 Z" clip-path="url(#clipPath2)" stroke="none"/>
      <text x="88.1055" font-size="16px" y="496.625" clip-path="url(#clipPath2)" font-family="sans-serif" stroke="none" xml:space="preserve">Extends</text>
      <text x="108.75" font-size="16px" y="515.4688" clip-path="url(#clipPath2)" font-family="sans-serif" stroke="none" xml:space="preserve">    </text>
    </g>
  </g>
</svg>
