<?xml version="1.0" encoding="UTF-8"?><svg xmlns="http://www.w3.org/2000/svg" xmlns:xlink="http://www.w3.org/1999/xlink" fill-opacity="1" color-rendering="auto" color-interpolation="auto" text-rendering="auto" stroke="black" stroke-linecap="square" width="1112" stroke-miterlimit="10" shape-rendering="auto" stroke-opacity="1" fill="black" stroke-dasharray="none" font-weight="normal" stroke-width="1" height="528" font-family="'Dialog'" font-style="normal" stroke-linejoin="miter" font-size="12px" stroke-dashoffset="0" image-rendering="auto">
  <!--Generated by ySVG 2.5-->
  <defs id="genericDefs"/>
  <g>
    <defs id="defs1">
      <clipPath clipPathUnits="userSpaceOnUse" id="clipPath1">
        <path d="M0 0 L1112 0 L1112 528 L0 528 L0 0 Z"/>
      </clipPath>
      <clipPath clipPathUnits="userSpaceOnUse" id="clipPath2">
        <path d="M177 359 L1289 359 L1289 887 L177 887 L177 359 Z"/>
      </clipPath>
    </defs>
    <g fill="white" text-rendering="geometricPrecision" shape-rendering="geometricPrecision" transform="translate(-177,-359)" stroke="white">
      <rect x="177" width="1112" height="528" y="359" clip-path="url(#clipPath2)" stroke="none"/>
    </g>
    <g fill="rgb(212,231,205)" text-rendering="geometricPrecision" shape-rendering="geometricPrecision" transform="matrix(1,0,0,1,-177,-359)" stroke="rgb(212,231,205)">
      <rect x="1052" width="155" height="22" y="647" clip-path="url(#clipPath2)" stroke="none"/>
    </g>
    <g text-rendering="geometricPrecision" stroke-miterlimit="1.45" shape-rendering="geometricPrecision" transform="matrix(1,0,0,1,-177,-359)" stroke-linecap="butt">
      <rect fill="none" x="1052" width="155" height="22" y="647" clip-path="url(#clipPath2)"/>
      <text x="1060.3828" xml:space="preserve" y="662.5352" clip-path="url(#clipPath2)" font-family="sans-serif" stroke="none">Poll Handler From Node</text>
    </g>
    <g fill="rgb(212,231,205)" text-rendering="geometricPrecision" shape-rendering="geometricPrecision" transform="matrix(1,0,0,1,-177,-359)" stroke="rgb(212,231,205)">
      <rect x="1027" width="155" height="22" y="622" clip-path="url(#clipPath2)" stroke="none"/>
    </g>
    <g text-rendering="geometricPrecision" stroke-miterlimit="1.45" shape-rendering="geometricPrecision" transform="matrix(1,0,0,1,-177,-359)" stroke-linecap="butt">
      <rect fill="none" x="1027" width="155" height="22" y="622" clip-path="url(#clipPath2)"/>
      <text x="1035.3828" xml:space="preserve" y="637.5352" clip-path="url(#clipPath2)" font-family="sans-serif" stroke="none">Poll Handler From Node</text>
    </g>
    <g fill="rgb(201,222,241)" text-rendering="geometricPrecision" shape-rendering="geometricPrecision" transform="matrix(1,0,0,1,-177,-359)" stroke="rgb(201,222,241)">
      <rect x="294" width="140" height="45" y="381" clip-path="url(#clipPath2)" stroke="none"/>
    </g>
    <g text-rendering="geometricPrecision" stroke-miterlimit="1.45" shape-rendering="geometricPrecision" transform="matrix(1,0,0,1,-177,-359)" stroke-linecap="butt">
      <rect fill="none" x="294" width="140" height="45" y="381" clip-path="url(#clipPath2)"/>
      <text x="320.2383" font-size="16px" y="409.5469" clip-path="url(#clipPath2)" font-family="sans-serif" stroke="none" xml:space="preserve">gNMI client</text>
    </g>
    <g fill="rgb(201,222,241)" text-rendering="geometricPrecision" shape-rendering="geometricPrecision" transform="matrix(1,0,0,1,-177,-359)" stroke="rgb(201,222,241)">
      <rect x="239.5" width="249" height="45" y="589" clip-path="url(#clipPath2)" stroke="none"/>
    </g>
    <g text-rendering="geometricPrecision" stroke-miterlimit="1.45" shape-rendering="geometricPrecision" transform="matrix(1,0,0,1,-177,-359)" stroke-linecap="butt">
      <rect fill="none" x="239.5" width="249" height="45" y="589" clip-path="url(#clipPath2)"/>
      <text x="268.7695" font-size="16px" y="617.5469" clip-path="url(#clipPath2)" font-family="sans-serif" stroke="none" xml:space="preserve">ConfigMonitoringService</text>
    </g>
    <g fill="rgb(201,222,241)" text-rendering="geometricPrecision" shape-rendering="geometricPrecision" transform="matrix(1,0,0,1,-177,-359)" stroke="rgb(201,222,241)">
      <rect x="789" width="420" height="242" y="580" clip-path="url(#clipPath2)" stroke="none"/>
    </g>
    <g text-rendering="geometricPrecision" stroke-miterlimit="1.45" shape-rendering="geometricPrecision" transform="matrix(1,0,0,1,-177,-359)" stroke-linecap="butt">
      <rect fill="none" x="789" width="420" height="242" y="580" clip-path="url(#clipPath2)"/>
      <text x="923.6445" font-size="16px" y="644.5177" clip-path="url(#clipPath2)" font-family="sans-serif" stroke="none" xml:space="preserve">SubscriptionHandle</text>
    </g>
    <g fill="rgb(212,231,205)" text-rendering="geometricPrecision" shape-rendering="geometricPrecision" transform="matrix(1,0,0,1,-177,-359)" stroke="rgb(212,231,205)">
      <rect x="971.5" width="155" height="22" y="724.75" clip-path="url(#clipPath2)" stroke="none"/>
    </g>
    <g text-rendering="geometricPrecision" stroke-miterlimit="1.45" shape-rendering="geometricPrecision" transform="matrix(1,0,0,1,-177,-359)" stroke-linecap="butt">
      <rect fill="none" x="971.5" width="155" height="22" y="724.75" clip-path="url(#clipPath2)"/>
      <text x="979.8828" xml:space="preserve" y="740.2852" clip-path="url(#clipPath2)" font-family="sans-serif" stroke="none">Poll Handler From Node</text>
    </g>
    <g fill="rgb(201,222,241)" text-rendering="geometricPrecision" shape-rendering="geometricPrecision" transform="matrix(1,0,0,1,-177,-359)" stroke="rgb(201,222,241)">
      <rect x="814" width="420" height="242" y="605" clip-path="url(#clipPath2)" stroke="none"/>
    </g>
    <g text-rendering="geometricPrecision" stroke-miterlimit="1.45" shape-rendering="geometricPrecision" transform="matrix(1,0,0,1,-177,-359)" stroke-linecap="butt">
      <rect fill="none" x="814" width="420" height="242" y="605" clip-path="url(#clipPath2)"/>
      <text x="948.6445" font-size="16px" y="665.5547" clip-path="url(#clipPath2)" font-family="sans-serif" stroke="none" xml:space="preserve">SubscriptionHandle</text>
    </g>
    <g fill="rgb(212,231,205)" text-rendering="geometricPrecision" shape-rendering="geometricPrecision" transform="matrix(1,0,0,1,-177,-359)" stroke="rgb(212,231,205)">
      <rect x="946.5" width="155" height="22" y="793" clip-path="url(#clipPath2)" stroke="none"/>
    </g>
    <g text-rendering="geometricPrecision" stroke-miterlimit="1.45" shape-rendering="geometricPrecision" transform="matrix(1,0,0,1,-177,-359)" stroke-linecap="butt">
      <rect fill="none" x="946.5" width="155" height="22" y="793" clip-path="url(#clipPath2)"/>
      <text x="954.8828" xml:space="preserve" y="808.5352" clip-path="url(#clipPath2)" font-family="sans-serif" stroke="none">Poll Handler From Node</text>
    </g>
    <g fill="rgb(201,222,241)" text-rendering="geometricPrecision" shape-rendering="geometricPrecision" transform="matrix(1,0,0,1,-177,-359)" stroke="rgb(201,222,241)">
      <rect x="839" width="420" height="242" y="630" clip-path="url(#clipPath2)" stroke="none"/>
    </g>
    <g text-rendering="geometricPrecision" stroke-miterlimit="1.45" shape-rendering="geometricPrecision" transform="matrix(1,0,0,1,-177,-359)" stroke-linecap="butt">
      <rect fill="none" x="839" width="420" height="242" y="630" clip-path="url(#clipPath2)"/>
      <text x="973.6445" font-size="16px" y="666.143" clip-path="url(#clipPath2)" font-family="sans-serif" stroke="none" xml:space="preserve">SubscriptionHandle</text>
    </g>
    <g fill="rgb(212,231,205)" text-rendering="geometricPrecision" shape-rendering="geometricPrecision" transform="matrix(1,0,0,1,-177,-359)" stroke="rgb(212,231,205)">
      <rect x="971.5" width="155" height="22" y="825" clip-path="url(#clipPath2)" stroke="none"/>
    </g>
    <g text-rendering="geometricPrecision" stroke-miterlimit="1.45" shape-rendering="geometricPrecision" transform="matrix(1,0,0,1,-177,-359)" stroke-linecap="butt">
      <rect fill="none" x="971.5" width="155" height="22" y="825" clip-path="url(#clipPath2)"/>
      <text x="979.8828" xml:space="preserve" y="840.5352" clip-path="url(#clipPath2)" font-family="sans-serif" stroke="none">Poll Handler From Node</text>
    </g>
    <g fill="rgb(212,231,205)" text-rendering="geometricPrecision" shape-rendering="geometricPrecision" transform="matrix(1,0,0,1,-177,-359)" stroke="rgb(212,231,205)">
      <rect x="971.5" width="155" height="22" y="724.75" clip-path="url(#clipPath2)" stroke="none"/>
    </g>
    <g text-rendering="geometricPrecision" stroke-miterlimit="1.45" shape-rendering="geometricPrecision" transform="matrix(1,0,0,1,-177,-359)" stroke-linecap="butt">
      <rect fill="none" x="971.5" width="155" height="22" y="724.75" clip-path="url(#clipPath2)"/>
      <text x="973.0244" xml:space="preserve" y="740.2852" clip-path="url(#clipPath2)" font-family="sans-serif" stroke="none">In-place subscribe stream</text>
      <text x="869.236" font-size="16px" y="573.9219" clip-path="url(#clipPath2)" font-family="sans-serif" stroke="none" xml:space="preserve">Subscription handles (one per path)</text>
      <text x="202.2146" xml:space="preserve" y="504.5352" clip-path="url(#clipPath2)" font-family="sans-serif" stroke="none">1 - Send GetRequest</text>
      <text x="495.7502" xml:space="preserve" y="689.8206" clip-path="url(#clipPath2)" font-family="sans-serif" stroke="none">3 - Creates handles with in-place streams</text>
      <text x="453.8892" y="790.5352" clip-path="url(#clipPath2)" fill="red" font-family="sans-serif" stroke="none" xml:space="preserve">4 - Send PollEvent to handles</text>
      <text x="977.0029" y="796.2852" clip-path="url(#clipPath2)" fill="red" font-family="sans-serif" stroke="none" xml:space="preserve">5 - Send value to stream</text>
      <text x="964.957" y="394.5246" clip-path="url(#clipPath2)" fill="red" font-family="sans-serif" stroke="none" xml:space="preserve">6 - Add value to response</text>
    </g>
    <g fill="rgb(212,231,205)" text-rendering="geometricPrecision" shape-rendering="geometricPrecision" transform="matrix(1,0,0,1,-177,-359)" stroke="rgb(212,231,205)">
      <rect x="634.47" width="155" height="22" y="391" clip-path="url(#clipPath2)" stroke="none"/>
    </g>
    <g text-rendering="geometricPrecision" stroke-miterlimit="1.45" shape-rendering="geometricPrecision" transform="matrix(1,0,0,1,-177,-359)" stroke-linecap="butt">
      <rect fill="none" x="634.47" width="155" height="22" y="391" clip-path="url(#clipPath2)"/>
      <text x="674.2649" xml:space="preserve" y="406.5352" clip-path="url(#clipPath2)" font-family="sans-serif" stroke="none">GetResponse</text>
      <text x="579.8359" xml:space="preserve" y="624.5352" clip-path="url(#clipPath2)" font-family="sans-serif" stroke="none">2 - Create Get Response</text>
      <text x="399.9836" y="506.4688" clip-path="url(#clipPath2)" fill="red" font-family="sans-serif" stroke="none" xml:space="preserve">7 - Send GetResponse</text>
      <path fill="none" d="M326.8179 426.0223 L326.8179 580.9919" clip-path="url(#clipPath2)"/>
      <path d="M326.8179 588.9919 L331.8179 576.9919 L326.8179 579.9919 L321.8179 576.9919 Z" clip-path="url(#clipPath2)" stroke="none"/>
      <path fill="none" d="M424.1932 634.0019 L424.1932 701 L780.9554 701" clip-path="url(#clipPath2)"/>
      <path d="M788.9554 701 L776.9554 696 L779.9554 701 L776.9554 706 Z" clip-path="url(#clipPath2)" stroke="none"/>
      <path fill="none" d="M423.9624 634.0059 L423.9624 726 L805.9524 726" clip-path="url(#clipPath2)"/>
      <path d="M813.9524 726 L801.9524 721 L804.9524 726 L801.9524 731 Z" clip-path="url(#clipPath2)" stroke="none"/>
      <path fill="none" d="M364 634 L364 794.1918 L813.9819 794.1918" clip-path="url(#clipPath2)" stroke="red"/>
      <path fill="none" d="M424.1932 634.0116 L424.1932 692.1535 L813.9925 692.1535" clip-path="url(#clipPath2)"/>
      <path fill="none" d="M423.9624 634.0179 L423.9624 751 L830.9747 751" clip-path="url(#clipPath2)"/>
      <path d="M838.9747 751 L826.9747 746 L829.9747 751 L826.9747 756 Z" clip-path="url(#clipPath2)" stroke="none"/>
      <path fill="none" d="M364 634 L364 815.999 L838.9609 815.999" clip-path="url(#clipPath2)" stroke="red"/>
      <path fill="none" d="M423.4744 634.0386 L423.4744 715.0998 L838.9811 715.0998" clip-path="url(#clipPath2)"/>
      <path fill="none" d="M364 634 L364 836 L963.4629 836" clip-path="url(#clipPath2)" stroke="red"/>
      <path fill="red" d="M971.4629 836 L959.4629 831 L962.4629 836 L959.4629 841 Z" clip-path="url(#clipPath2)" stroke="none"/>
      <path fill="none" d="M1049 824.9618 L1049 754.75" clip-path="url(#clipPath2)" stroke="red"/>
      <path fill="red" d="M1049 746.75 L1044 758.75 L1049 755.75 L1054 758.75 Z" clip-path="url(#clipPath2)" stroke="none"/>
      <path fill="none" d="M423.9624 634.0446 L423.9624 735.75 L963.4666 735.75" clip-path="url(#clipPath2)"/>
      <path d="M971.4666 735.75 L959.4666 730.75 L962.4666 735.75 L959.4666 740.75 Z" clip-path="url(#clipPath2)" stroke="none"/>
      <path fill="none" d="M1126.5 735.75 L1273 735.75 L1273 402 L797.47 402" clip-path="url(#clipPath2)" stroke="red"/>
      <path fill="red" d="M789.47 402 L801.47 407 L798.47 402 L801.47 397 Z" clip-path="url(#clipPath2)" stroke="none"/>
      <path fill="none" d="M1246.2827 629.9865 L1246.2827 402 L797.47 402" clip-path="url(#clipPath2)" stroke="red"/>
      <path fill="red" d="M789.47 402 L801.47 407 L798.47 402 L801.47 397 Z" clip-path="url(#clipPath2)" stroke="none"/>
      <path fill="none" d="M1221.783 604.9695 L1221.783 402 L797.47 402" clip-path="url(#clipPath2)" stroke="red"/>
      <path fill="red" d="M789.47 402 L801.47 407 L798.47 402 L801.47 397 Z" clip-path="url(#clipPath2)" stroke="none"/>
      <path fill="none" d="M488.5 611.5 L757 611.5 L757 421.0235" clip-path="url(#clipPath2)"/>
      <path d="M757 413.0235 L752 425.0235 L757 422.0235 L762 425.0235 Z" clip-path="url(#clipPath2)" stroke="none"/>
      <path fill="none" d="M660.6089 413.0276 L660.6089 596.8045 L394.0807 596.8045 L394.0807 434.0012" clip-path="url(#clipPath2)" stroke="red"/>
      <path fill="red" d="M394.0807 426.0012 L389.0807 438.0012 L394.0807 435.0012 L399.0807 438.0012 Z" clip-path="url(#clipPath2)" stroke="none"/>
    </g>
  </g>
</svg>
