<?xml version="1.0" encoding="UTF-8"?><svg xmlns="http://www.w3.org/2000/svg" xmlns:xlink="http://www.w3.org/1999/xlink" fill-opacity="1" color-rendering="auto" color-interpolation="auto" text-rendering="auto" stroke="black" stroke-linecap="square" width="1184" stroke-miterlimit="10" shape-rendering="auto" stroke-opacity="1" fill="black" stroke-dasharray="none" font-weight="normal" stroke-width="1" height="711" font-family="'Dialog'" font-style="normal" stroke-linejoin="miter" font-size="12px" stroke-dashoffset="0" image-rendering="auto">
  <!--Generated by ySVG 2.5-->
  <defs id="genericDefs"/>
  <g>
    <defs id="defs1">
      <clipPath clipPathUnits="userSpaceOnUse" id="clipPath1">
        <path d="M0 0 L1184 0 L1184 711 L0 711 L0 0 Z"/>
      </clipPath>
      <clipPath clipPathUnits="userSpaceOnUse" id="clipPath2">
        <path d="M226 194 L1410 194 L1410 905 L226 905 L226 194 Z"/>
      </clipPath>
    </defs>
    <g fill="white" text-rendering="geometricPrecision" shape-rendering="geometricPrecision" transform="translate(-226,-194)" stroke="white">
      <rect x="226" width="1184" height="711" y="194" clip-path="url(#clipPath2)" stroke="none"/>
    </g>
    <g fill="rgb(201,222,241)" text-rendering="geometricPrecision" shape-rendering="geometricPrecision" transform="matrix(1,0,0,1,-226,-194)" stroke="rgb(201,222,241)">
      <rect x="640" width="356" height="30" y="272" clip-path="url(#clipPath2)" stroke="none"/>
    </g>
    <g text-rendering="geometricPrecision" stroke-miterlimit="1.45" shape-rendering="geometricPrecision" transform="matrix(1,0,0,1,-226,-194)" stroke-linecap="butt">
      <rect fill="none" x="640" width="356" height="30" y="272" clip-path="url(#clipPath2)"/>
      <text x="697.8086" font-size="16px" y="293.0469" clip-path="url(#clipPath2)" font-family="sans-serif" stroke="none" xml:space="preserve">SwitchInterface/YangParseTree</text>
    </g>
    <g fill="rgb(201,222,241)" text-rendering="geometricPrecision" shape-rendering="geometricPrecision" transform="matrix(1,0,0,1,-226,-194)" stroke="rgb(201,222,241)">
      <rect x="640" width="356" height="30" y="357" clip-path="url(#clipPath2)" stroke="none"/>
    </g>
    <g text-rendering="geometricPrecision" stroke-miterlimit="1.45" shape-rendering="geometricPrecision" transform="matrix(1,0,0,1,-226,-194)" stroke-linecap="butt">
      <rect fill="none" x="640" width="356" height="30" y="357" clip-path="url(#clipPath2)"/>
      <text x="761.6523" font-size="16px" y="378.0469" clip-path="url(#clipPath2)" font-family="sans-serif" stroke="none" xml:space="preserve">GnmiPublisher</text>
    </g>
    <g fill="rgb(201,222,241)" text-rendering="geometricPrecision" shape-rendering="geometricPrecision" transform="matrix(1,0,0,1,-226,-194)" stroke="rgb(201,222,241)">
      <rect x="640" width="356" height="30" y="462" clip-path="url(#clipPath2)" stroke="none"/>
    </g>
    <g text-rendering="geometricPrecision" stroke-miterlimit="1.45" shape-rendering="geometricPrecision" transform="matrix(1,0,0,1,-226,-194)" stroke-linecap="butt">
      <rect fill="none" x="640" width="356" height="30" y="462" clip-path="url(#clipPath2)"/>
      <text x="730.6133" font-size="16px" y="483.0469" clip-path="url(#clipPath2)" font-family="sans-serif" stroke="none" xml:space="preserve">FooGnmiEvent.Process</text>
    </g>
    <g fill="rgb(201,222,241)" text-rendering="geometricPrecision" shape-rendering="geometricPrecision" transform="matrix(1,0,0,1,-226,-194)" stroke="rgb(201,222,241)">
      <rect x="640" width="356" height="30" y="567" clip-path="url(#clipPath2)" stroke="none"/>
    </g>
    <g text-rendering="geometricPrecision" stroke-miterlimit="1.45" shape-rendering="geometricPrecision" transform="matrix(1,0,0,1,-226,-194)" stroke-linecap="butt">
      <rect fill="none" x="640" width="356" height="30" y="567" clip-path="url(#clipPath2)"/>
      <text x="663.9766" font-size="16px" y="588.0469" clip-path="url(#clipPath2)" font-family="sans-serif" stroke="none" xml:space="preserve">EventHandlerList&lt;FooGnmiEventEvent&gt;</text>
    </g>
    <g fill="rgb(201,222,241)" text-rendering="geometricPrecision" shape-rendering="geometricPrecision" transform="matrix(1,0,0,1,-226,-194)" stroke="rgb(201,222,241)">
      <rect x="629" width="356" height="30" y="787" clip-path="url(#clipPath2)" stroke="none"/>
    </g>
    <g text-rendering="geometricPrecision" stroke-miterlimit="1.45" shape-rendering="geometricPrecision" transform="matrix(1,0,0,1,-226,-194)" stroke-linecap="butt">
      <rect fill="none" x="629" width="356" height="30" y="787" clip-path="url(#clipPath2)"/>
      <text x="755.7695" font-size="16px" y="808.0469" clip-path="url(#clipPath2)" font-family="sans-serif" stroke="none" xml:space="preserve">EventHandler</text>
    </g>
    <g fill="rgb(201,222,241)" text-rendering="geometricPrecision" shape-rendering="geometricPrecision" transform="matrix(1,0,0,1,-226,-194)" stroke="rgb(201,222,241)">
      <rect x="629" width="356" height="30" y="655" clip-path="url(#clipPath2)" stroke="none"/>
    </g>
    <g text-rendering="geometricPrecision" stroke-miterlimit="1.45" shape-rendering="geometricPrecision" transform="matrix(1,0,0,1,-226,-194)" stroke-linecap="butt">
      <rect fill="none" x="629" width="356" height="30" y="655" clip-path="url(#clipPath2)"/>
      <text x="728.9336" font-size="16px" y="676.0469" clip-path="url(#clipPath2)" font-family="sans-serif" stroke="none" xml:space="preserve">EventHandlerRecord</text>
    </g>
    <g fill="rgb(201,222,241)" text-rendering="geometricPrecision" shape-rendering="geometricPrecision" transform="matrix(1,0,0,1,-226,-194)" stroke="rgb(201,222,241)">
      <rect x="640" width="356" height="30" y="796" clip-path="url(#clipPath2)" stroke="none"/>
    </g>
    <g text-rendering="geometricPrecision" stroke-miterlimit="1.45" shape-rendering="geometricPrecision" transform="matrix(1,0,0,1,-226,-194)" stroke-linecap="butt">
      <rect fill="none" x="640" width="356" height="30" y="796" clip-path="url(#clipPath2)"/>
      <text x="766.7695" font-size="16px" y="817.0469" clip-path="url(#clipPath2)" font-family="sans-serif" stroke="none" xml:space="preserve">EventHandler</text>
    </g>
    <g fill="rgb(201,222,241)" text-rendering="geometricPrecision" shape-rendering="geometricPrecision" transform="matrix(1,0,0,1,-226,-194)" stroke="rgb(201,222,241)">
      <rect x="640" width="356" height="30" y="664" clip-path="url(#clipPath2)" stroke="none"/>
    </g>
    <g text-rendering="geometricPrecision" stroke-miterlimit="1.45" shape-rendering="geometricPrecision" transform="matrix(1,0,0,1,-226,-194)" stroke-linecap="butt">
      <rect fill="none" x="640" width="356" height="30" y="664" clip-path="url(#clipPath2)"/>
      <text x="739.9336" font-size="16px" y="685.0469" clip-path="url(#clipPath2)" font-family="sans-serif" stroke="none" xml:space="preserve">EventHandlerRecord</text>
    </g>
    <g fill="rgb(201,222,241)" text-rendering="geometricPrecision" shape-rendering="geometricPrecision" transform="matrix(1,0,0,1,-226,-194)" stroke="rgb(201,222,241)">
      <rect x="649" width="356" height="30" y="804" clip-path="url(#clipPath2)" stroke="none"/>
    </g>
    <g text-rendering="geometricPrecision" stroke-miterlimit="1.45" shape-rendering="geometricPrecision" transform="matrix(1,0,0,1,-226,-194)" stroke-linecap="butt">
      <rect fill="none" x="649" width="356" height="30" y="804" clip-path="url(#clipPath2)"/>
      <text x="775.7695" font-size="16px" y="825.0469" clip-path="url(#clipPath2)" font-family="sans-serif" stroke="none" xml:space="preserve">EventHandler</text>
    </g>
    <g fill="rgb(201,222,241)" text-rendering="geometricPrecision" shape-rendering="geometricPrecision" transform="matrix(1,0,0,1,-226,-194)" stroke="rgb(201,222,241)">
      <rect x="649" width="356" height="30" y="672" clip-path="url(#clipPath2)" stroke="none"/>
    </g>
    <g text-rendering="geometricPrecision" stroke-miterlimit="1.45" shape-rendering="geometricPrecision" transform="matrix(1,0,0,1,-226,-194)" stroke-linecap="butt">
      <rect fill="none" x="649" width="356" height="30" y="672" clip-path="url(#clipPath2)"/>
      <text x="748.9336" font-size="16px" y="693.0469" clip-path="url(#clipPath2)" font-family="sans-serif" stroke="none" xml:space="preserve">EventHandlerRecord</text>
    </g>
    <g fill="rgb(201,222,241)" text-rendering="geometricPrecision" shape-rendering="geometricPrecision" transform="matrix(1,0,0,1,-226,-194)" stroke="rgb(201,222,241)">
      <rect x="660" width="356" height="30" y="817" clip-path="url(#clipPath2)" stroke="none"/>
    </g>
    <g text-rendering="geometricPrecision" stroke-miterlimit="1.45" shape-rendering="geometricPrecision" transform="matrix(1,0,0,1,-226,-194)" stroke-linecap="butt">
      <rect fill="none" x="660" width="356" height="30" y="817" clip-path="url(#clipPath2)"/>
      <text x="786.7695" font-size="16px" y="838.0469" clip-path="url(#clipPath2)" font-family="sans-serif" stroke="none" xml:space="preserve">EventHandler</text>
    </g>
    <g fill="rgb(201,222,241)" text-rendering="geometricPrecision" shape-rendering="geometricPrecision" transform="matrix(1,0,0,1,-226,-194)" stroke="rgb(201,222,241)">
      <rect x="660" width="356" height="30" y="685" clip-path="url(#clipPath2)" stroke="none"/>
    </g>
    <g text-rendering="geometricPrecision" stroke-miterlimit="1.45" shape-rendering="geometricPrecision" transform="matrix(1,0,0,1,-226,-194)" stroke-linecap="butt">
      <rect fill="none" x="660" width="356" height="30" y="685" clip-path="url(#clipPath2)"/>
      <text x="759.9336" font-size="16px" y="706.0469" clip-path="url(#clipPath2)" font-family="sans-serif" stroke="none" xml:space="preserve">EventHandlerRecord</text>
      <text x="835.4141" xml:space="preserve" y="334.0352" clip-path="url(#clipPath2)" font-family="sans-serif" stroke="none">Send FooGnmiEvent via event writer</text>
      <text x="831.21" xml:space="preserve" y="425.5352" clip-path="url(#clipPath2)" font-family="sans-serif" stroke="none">Call "Process" method from the event</text>
      <text x="833.9756" xml:space="preserve" y="525.0352" clip-path="url(#clipPath2)" font-family="sans-serif" stroke="none">Find handler list and send itself to it</text>
      <text x="843.5469" xml:space="preserve" y="630.5352" clip-path="url(#clipPath2)" font-family="sans-serif" stroke="none">Send event to all handler records</text>
      <text x="849.2529" xml:space="preserve" y="757.5352" clip-path="url(#clipPath2)" font-family="sans-serif" stroke="none">Apply event to handler with subscriber stream from the record</text>
      <path fill="none" d="M818 302 L818 349" clip-path="url(#clipPath2)"/>
      <path d="M818 357 L823 345 L818 348 L813 345 Z" clip-path="url(#clipPath2)" stroke="none"/>
      <path fill="none" d="M818 387 L818 454" clip-path="url(#clipPath2)"/>
      <path d="M818 462 L823 450 L818 453 L813 450 Z" clip-path="url(#clipPath2)" stroke="none"/>
      <path fill="none" d="M818 492 L818 559" clip-path="url(#clipPath2)"/>
      <path d="M818 567 L823 555 L818 558 L813 555 Z" clip-path="url(#clipPath2)" stroke="none"/>
      <path fill="none" d="M816.125 597 L809.8672 647.0618" clip-path="url(#clipPath2)"/>
      <path d="M808.875 655 L815.3248 643.7128 L809.9913 646.0695 L805.402 642.4725 Z" clip-path="url(#clipPath2)" stroke="none"/>
      <path fill="none" d="M818 597 L818 656" clip-path="url(#clipPath2)"/>
      <path d="M818 664 L823 652 L818 655 L813 652 Z" clip-path="url(#clipPath2)" stroke="none"/>
      <path fill="none" d="M819.2857 597 L825.0311 664.0292" clip-path="url(#clipPath2)"/>
      <path d="M825.7143 672 L829.6712 659.6168 L824.9457 663.0329 L819.7077 660.4709 Z" clip-path="url(#clipPath2)" stroke="none"/>
      <path fill="none" d="M820.5424 597 L834.1208 677.1125" clip-path="url(#clipPath2)"/>
      <path d="M835.4576 685 L838.3821 672.3332 L833.9537 676.1265 L828.5226 674.0043 Z" clip-path="url(#clipPath2)" stroke="none"/>
      <path fill="none" d="M838 715 L838 809" clip-path="url(#clipPath2)"/>
      <path d="M838 817 L843 805 L838 808 L833 805 Z" clip-path="url(#clipPath2)" stroke="none"/>
      <path fill="none" d="M807 715.0347 L807 779" clip-path="url(#clipPath2)"/>
      <path d="M807 787 L812 775 L807 778 L802 775 Z" clip-path="url(#clipPath2)" stroke="none"/>
      <path fill="none" d="M818 715.0078 L818 788" clip-path="url(#clipPath2)"/>
      <path d="M818 796 L823 784 L818 787 L813 784 Z" clip-path="url(#clipPath2)" stroke="none"/>
      <path fill="none" d="M827 715.0234 L827 796" clip-path="url(#clipPath2)"/>
      <path d="M827 804 L832 792 L827 795 L822 792 Z" clip-path="url(#clipPath2)" stroke="none"/>
    </g>
  </g>
</svg>
