<?xml version="1.0" encoding="UTF-8"?><svg xmlns="http://www.w3.org/2000/svg" xmlns:xlink="http://www.w3.org/1999/xlink" fill-opacity="1" color-rendering="auto" color-interpolation="auto" text-rendering="auto" stroke="black" stroke-linecap="square" width="880" stroke-miterlimit="10" shape-rendering="auto" stroke-opacity="1" fill="black" stroke-dasharray="none" font-weight="normal" stroke-width="1" height="365" font-family="'Dialog'" font-style="normal" stroke-linejoin="miter" font-size="12px" stroke-dashoffset="0" image-rendering="auto">
  <!--Generated by ySVG 2.5-->
  <defs id="genericDefs"/>
  <g>
    <defs id="defs1">
      <clipPath clipPathUnits="userSpaceOnUse" id="clipPath1">
        <path d="M0 0 L880 0 L880 365 L0 365 L0 0 Z"/>
      </clipPath>
      <clipPath clipPathUnits="userSpaceOnUse" id="clipPath2">
        <path d="M597 206 L1477 206 L1477 571 L597 571 L597 206 Z"/>
      </clipPath>
    </defs>
    <g fill="white" text-rendering="geometricPrecision" shape-rendering="geometricPrecision" transform="translate(-597,-206)" stroke="white">
      <rect x="597" width="880" height="365" y="206" clip-path="url(#clipPath2)" stroke="none"/>
    </g>
    <g fill="rgb(245,168,96)" text-rendering="geometricPrecision" shape-rendering="geometricPrecision" transform="matrix(1,0,0,1,-597,-206)" stroke="rgb(245,168,96)">
      <circle r="21" clip-path="url(#clipPath2)" cx="1130" cy="265.5" stroke="none"/>
    </g>
    <g text-rendering="geometricPrecision" stroke-miterlimit="1.45" shape-rendering="geometricPrecision" transform="matrix(1,0,0,1,-597,-206)" stroke-linecap="butt">
      <circle fill="none" r="21" clip-path="url(#clipPath2)" cx="1130" cy="265.5"/>
    </g>
    <g fill="rgb(201,222,241)" text-rendering="geometricPrecision" shape-rendering="geometricPrecision" transform="matrix(1,0,0,1,-597,-206)" stroke="rgb(201,222,241)">
      <rect x="766.9452" width="164" height="30.7926" y="247" clip-path="url(#clipPath2)" stroke="none"/>
    </g>
    <g text-rendering="geometricPrecision" stroke-miterlimit="1.45" shape-rendering="geometricPrecision" transform="matrix(1,0,0,1,-597,-206)" stroke-linecap="butt">
      <rect fill="none" x="766.9452" width="164" height="30.7926" y="247" clip-path="url(#clipPath2)"/>
      <text x="805.1835" font-size="16px" y="268.4432" clip-path="url(#clipPath2)" font-family="sans-serif" stroke="none" xml:space="preserve">gNMI client</text>
    </g>
    <g fill="rgb(201,222,241)" text-rendering="geometricPrecision" shape-rendering="geometricPrecision" transform="matrix(1,0,0,1,-597,-206)" stroke="rgb(201,222,241)">
      <rect x="726.9452" width="244" height="30.7926" y="404" clip-path="url(#clipPath2)" stroke="none"/>
    </g>
    <g text-rendering="geometricPrecision" stroke-miterlimit="1.45" shape-rendering="geometricPrecision" transform="matrix(1,0,0,1,-597,-206)" stroke-linecap="butt">
      <rect fill="none" x="726.9452" width="244" height="30.7926" y="404" clip-path="url(#clipPath2)"/>
      <text x="753.7148" font-size="16px" y="425.4432" clip-path="url(#clipPath2)" font-family="sans-serif" stroke="none" xml:space="preserve">ConfigMonitoringService</text>
    </g>
    <g fill="rgb(245,168,96)" text-rendering="geometricPrecision" shape-rendering="geometricPrecision" transform="matrix(1,0,0,1,-597,-206)" stroke="rgb(245,168,96)">
      <circle r="21" clip-path="url(#clipPath2)" cx="1088" cy="307.5" stroke="none"/>
    </g>
    <g text-rendering="geometricPrecision" stroke-miterlimit="1.45" shape-rendering="geometricPrecision" transform="matrix(1,0,0,1,-597,-206)" stroke-linecap="butt">
      <circle fill="none" r="21" clip-path="url(#clipPath2)" cx="1088" cy="307.5"/>
    </g>
    <g fill="rgb(245,168,96)" text-rendering="geometricPrecision" shape-rendering="geometricPrecision" transform="matrix(1,0,0,1,-597,-206)" stroke="rgb(245,168,96)">
      <circle r="21" clip-path="url(#clipPath2)" cx="1046" cy="349.5" stroke="none"/>
    </g>
    <g text-rendering="geometricPrecision" stroke-miterlimit="1.45" shape-rendering="geometricPrecision" transform="matrix(1,0,0,1,-597,-206)" stroke-linecap="butt">
      <circle fill="none" r="21" clip-path="url(#clipPath2)" cx="1046" cy="349.5"/>
    </g>
    <g fill="rgb(245,168,96)" text-rendering="geometricPrecision" shape-rendering="geometricPrecision" transform="matrix(1,0,0,1,-597,-206)" stroke="rgb(245,168,96)">
      <circle r="21" clip-path="url(#clipPath2)" cx="1130" cy="349.5" stroke="none"/>
    </g>
    <g text-rendering="geometricPrecision" stroke-miterlimit="1.45" shape-rendering="geometricPrecision" transform="matrix(1,0,0,1,-597,-206)" stroke-linecap="butt">
      <circle fill="none" r="21" clip-path="url(#clipPath2)" cx="1130" cy="349.5"/>
    </g>
    <g fill="rgb(245,168,96)" text-rendering="geometricPrecision" shape-rendering="geometricPrecision" transform="matrix(1,0,0,1,-597,-206)" stroke="rgb(245,168,96)">
      <circle r="21" clip-path="url(#clipPath2)" cx="1172" cy="307.5" stroke="none"/>
    </g>
    <g text-rendering="geometricPrecision" stroke-miterlimit="1.45" shape-rendering="geometricPrecision" transform="matrix(1,0,0,1,-597,-206)" stroke-linecap="butt">
      <circle fill="none" r="21" clip-path="url(#clipPath2)" cx="1172" cy="307.5"/>
    </g>
    <g fill="rgb(245,168,96)" text-rendering="geometricPrecision" shape-rendering="geometricPrecision" transform="matrix(1,0,0,1,-597,-206)" stroke="rgb(245,168,96)">
      <circle r="21" clip-path="url(#clipPath2)" cx="1214" cy="349.5" stroke="none"/>
    </g>
    <g text-rendering="geometricPrecision" stroke-miterlimit="1.45" shape-rendering="geometricPrecision" transform="matrix(1,0,0,1,-597,-206)" stroke-linecap="butt">
      <circle fill="none" r="21" clip-path="url(#clipPath2)" cx="1214" cy="349.5"/>
    </g>
    <g fill="rgb(245,168,96)" text-rendering="geometricPrecision" shape-rendering="geometricPrecision" transform="matrix(1,0,0,1,-597,-206)" stroke="rgb(245,168,96)">
      <circle r="21" clip-path="url(#clipPath2)" cx="1256" cy="391.5" stroke="none"/>
    </g>
    <g text-rendering="geometricPrecision" stroke-miterlimit="1.45" shape-rendering="geometricPrecision" transform="matrix(1,0,0,1,-597,-206)" stroke-linecap="butt">
      <circle fill="none" r="21" clip-path="url(#clipPath2)" cx="1256" cy="391.5"/>
    </g>
    <g fill="rgb(201,222,241)" text-rendering="geometricPrecision" shape-rendering="geometricPrecision" transform="matrix(1,0,0,1,-597,-206)" stroke="rgb(201,222,241)">
      <rect x="1144" width="164" height="124" y="432" clip-path="url(#clipPath2)" stroke="none"/>
      <rect x="1162.5" y="449" clip-path="url(#clipPath2)" fill="rgb(212,231,205)" width="126" height="30" stroke="none"/>
    </g>
    <g text-rendering="geometricPrecision" stroke-miterlimit="1.45" shape-rendering="geometricPrecision" transform="matrix(1,0,0,1,-597,-206)" stroke-linecap="butt">
      <rect fill="none" x="1162.5" width="126" height="30" y="449" clip-path="url(#clipPath2)"/>
      <text x="1172.0479" xml:space="preserve" y="468.5352" clip-path="url(#clipPath2)" font-family="sans-serif" stroke="none">on update handler</text>
    </g>
    <g fill="rgb(212,231,205)" text-rendering="geometricPrecision" shape-rendering="geometricPrecision" transform="matrix(1,0,0,1,-597,-206)" stroke="rgb(212,231,205)">
      <rect x="1162.5" width="126" height="30" y="479" clip-path="url(#clipPath2)" stroke="none"/>
    </g>
    <g text-rendering="geometricPrecision" stroke-miterlimit="1.45" shape-rendering="geometricPrecision" transform="matrix(1,0,0,1,-597,-206)" stroke-linecap="butt">
      <rect fill="none" x="1162.5" width="126" height="30" y="479" clip-path="url(#clipPath2)"/>
      <text x="1171.1865" xml:space="preserve" y="498.5352" clip-path="url(#clipPath2)" font-family="sans-serif" stroke="none">on replace handler</text>
    </g>
    <g fill="rgb(212,231,205)" text-rendering="geometricPrecision" shape-rendering="geometricPrecision" transform="matrix(1,0,0,1,-597,-206)" stroke="rgb(212,231,205)">
      <rect x="1162.5" width="126" height="30" y="509" clip-path="url(#clipPath2)" stroke="none"/>
    </g>
    <g text-rendering="geometricPrecision" stroke-miterlimit="1.45" shape-rendering="geometricPrecision" transform="matrix(1,0,0,1,-597,-206)" stroke-linecap="butt">
      <rect fill="none" x="1162.5" width="126" height="30" y="509" clip-path="url(#clipPath2)"/>
      <text x="1174.4414" xml:space="preserve" y="528.5352" clip-path="url(#clipPath2)" font-family="sans-serif" stroke="none">on delete handler</text>
    </g>
    <g fill="rgb(201,222,241)" text-rendering="geometricPrecision" shape-rendering="geometricPrecision" transform="matrix(1,0,0,1,-597,-206)" stroke="rgb(201,222,241)">
      <path d="M1255.9993 412.4998 L1270.9993 434.7925 L1240.9993 434.7925 Z" fill-rule="evenodd" clip-path="url(#clipPath2)" stroke="none"/>
    </g>
    <g text-rendering="geometricPrecision" stroke-miterlimit="1.45" shape-rendering="geometricPrecision" font-family="sans-serif" transform="matrix(1,0,0,1,-597,-206)" stroke-linecap="butt">
      <text x="1087.0625" xml:space="preserve" y="234.9682" clip-path="url(#clipPath2)" stroke="none">YangParseTree</text>
      <text x="1017.8932" xml:space="preserve" y="460.437" clip-path="url(#clipPath2)" stroke="none">Update request</text>
      <text x="1016.1266" xml:space="preserve" y="490.437" clip-path="url(#clipPath2)" stroke="none">Replace request</text>
      <text x="1020.0026" xml:space="preserve" y="520.437" clip-path="url(#clipPath2)" stroke="none">Delete request</text>
      <path fill="none" d="M848.9453 277.7926 L848.9453 396" clip-path="url(#clipPath2)"/>
      <path d="M848.9453 404 L853.9453 392 L848.9453 395 L843.9453 392 Z" clip-path="url(#clipPath2)" stroke="none"/>
      <text x="744.3029" xml:space="preserve" y="347.1363" clip-path="url(#clipPath2)" stroke="none">gNMI SetRequest</text>
      <path fill="none" d="M1115.1508 280.3492 L1102.8492 292.6508" clip-path="url(#clipPath2)"/>
      <path fill="none" d="M1073.1508 322.3492 L1060.8492 334.6508" clip-path="url(#clipPath2)"/>
      <path fill="none" d="M1144.8492 280.3492 L1157.1508 292.6508" clip-path="url(#clipPath2)"/>
      <path fill="none" d="M1157.1508 322.3492 L1144.8492 334.6508" clip-path="url(#clipPath2)"/>
      <path fill="none" d="M1186.8492 322.3492 L1199.1508 334.6508" clip-path="url(#clipPath2)"/>
      <path fill="none" d="M1228.8492 364.3492 L1241.1508 376.6508" clip-path="url(#clipPath2)"/>
      <path fill="none" d="M908.1678 434.7954 L908.1678 464 L1154.469 464" clip-path="url(#clipPath2)"/>
      <path d="M1162.469 464 L1150.469 459 L1153.469 464 L1150.469 469 Z" clip-path="url(#clipPath2)" stroke="none"/>
      <path fill="none" d="M848.9453 434.7926 L848.9453 494 L1154.4617 494" clip-path="url(#clipPath2)"/>
      <path d="M1162.4617 494 L1150.4617 489 L1153.4617 494 L1150.4617 499 Z" clip-path="url(#clipPath2)" stroke="none"/>
      <path fill="none" d="M796.7715 434.7947 L796.7715 524 L1154.4553 524" clip-path="url(#clipPath2)"/>
      <path d="M1162.4553 524 L1150.4553 519 L1153.4553 524 L1150.4553 529 Z" clip-path="url(#clipPath2)" stroke="none"/>
    </g>
  </g>
</svg>
