<?xml version="1.0" encoding="UTF-8"?><svg xmlns="http://www.w3.org/2000/svg" xmlns:xlink="http://www.w3.org/1999/xlink" fill-opacity="1" color-rendering="auto" color-interpolation="auto" text-rendering="auto" stroke="black" stroke-linecap="square" width="996" stroke-miterlimit="10" shape-rendering="auto" stroke-opacity="1" fill="black" stroke-dasharray="none" font-weight="normal" stroke-width="1" height="379" font-family="'Dialog'" font-style="normal" stroke-linejoin="miter" font-size="12px" stroke-dashoffset="0" image-rendering="auto">
  <!--Generated by ySVG 2.5-->
  <defs id="genericDefs"/>
  <g>
    <defs id="defs1">
      <clipPath clipPathUnits="userSpaceOnUse" id="clipPath1">
        <path d="M0 0 L996 0 L996 379 L0 379 L0 0 Z"/>
      </clipPath>
      <clipPath clipPathUnits="userSpaceOnUse" id="clipPath2">
        <path d="M441 184 L1437 184 L1437 563 L441 563 L441 184 Z"/>
      </clipPath>
    </defs>
    <g fill="white" text-rendering="geometricPrecision" shape-rendering="geometricPrecision" transform="translate(-441,-184)" stroke="white">
      <rect x="441" width="996" height="379" y="184" clip-path="url(#clipPath2)" stroke="none"/>
    </g>
    <g fill="rgb(212,231,205)" text-rendering="geometricPrecision" shape-rendering="geometricPrecision" transform="matrix(1,0,0,1,-441,-184)" stroke="rgb(212,231,205)">
      <rect x="1201" width="155" height="22" y="487" clip-path="url(#clipPath2)" stroke="none"/>
    </g>
    <g text-rendering="geometricPrecision" stroke-miterlimit="1.45" shape-rendering="geometricPrecision" transform="matrix(1,0,0,1,-441,-184)" stroke-linecap="butt">
      <rect fill="none" x="1201" width="155" height="22" y="487" clip-path="url(#clipPath2)"/>
      <text x="1209.3828" xml:space="preserve" y="502.5352" clip-path="url(#clipPath2)" font-family="sans-serif" stroke="none">Poll Handler From Node</text>
    </g>
    <g fill="rgb(212,231,205)" text-rendering="geometricPrecision" shape-rendering="geometricPrecision" transform="matrix(1,0,0,1,-441,-184)" stroke="rgb(212,231,205)">
      <rect x="1176" width="155" height="22" y="462" clip-path="url(#clipPath2)" stroke="none"/>
    </g>
    <g text-rendering="geometricPrecision" stroke-miterlimit="1.45" shape-rendering="geometricPrecision" transform="matrix(1,0,0,1,-441,-184)" stroke-linecap="butt">
      <rect fill="none" x="1176" width="155" height="22" y="462" clip-path="url(#clipPath2)"/>
      <text x="1184.3828" xml:space="preserve" y="477.5352" clip-path="url(#clipPath2)" font-family="sans-serif" stroke="none">Poll Handler From Node</text>
    </g>
    <g fill="rgb(201,222,241)" text-rendering="geometricPrecision" shape-rendering="geometricPrecision" transform="matrix(1,0,0,1,-441,-184)" stroke="rgb(201,222,241)">
      <rect x="585" width="140" height="45" y="221" clip-path="url(#clipPath2)" stroke="none"/>
    </g>
    <g text-rendering="geometricPrecision" stroke-miterlimit="1.45" shape-rendering="geometricPrecision" transform="matrix(1,0,0,1,-441,-184)" stroke-linecap="butt">
      <rect fill="none" x="585" width="140" height="45" y="221" clip-path="url(#clipPath2)"/>
      <text x="611.2383" font-size="16px" y="249.5469" clip-path="url(#clipPath2)" font-family="sans-serif" stroke="none" xml:space="preserve">gNMI client</text>
    </g>
    <g fill="rgb(201,222,241)" text-rendering="geometricPrecision" shape-rendering="geometricPrecision" transform="matrix(1,0,0,1,-441,-184)" stroke="rgb(201,222,241)">
      <rect x="530.5" width="249" height="45" y="435" clip-path="url(#clipPath2)" stroke="none"/>
    </g>
    <g text-rendering="geometricPrecision" stroke-miterlimit="1.45" shape-rendering="geometricPrecision" transform="matrix(1,0,0,1,-441,-184)" stroke-linecap="butt">
      <rect fill="none" x="530.5" width="249" height="45" y="435" clip-path="url(#clipPath2)"/>
      <text x="559.7695" font-size="16px" y="463.5469" clip-path="url(#clipPath2)" font-family="sans-serif" stroke="none" xml:space="preserve">ConfigMonitoringService</text>
    </g>
    <g fill="rgb(201,222,241)" text-rendering="geometricPrecision" shape-rendering="geometricPrecision" transform="matrix(1,0,0,1,-441,-184)" stroke="rgb(201,222,241)">
      <rect x="938" width="420" height="75" y="420" clip-path="url(#clipPath2)" stroke="none"/>
    </g>
    <g text-rendering="geometricPrecision" stroke-miterlimit="1.45" shape-rendering="geometricPrecision" transform="matrix(1,0,0,1,-441,-184)" stroke-linecap="butt">
      <rect fill="none" x="938" width="420" height="75" y="420" clip-path="url(#clipPath2)"/>
      <text x="1072.6445" font-size="16px" y="443.2562" clip-path="url(#clipPath2)" font-family="sans-serif" stroke="none" xml:space="preserve">SubscriptionHandle</text>
    </g>
    <g fill="rgb(212,231,205)" text-rendering="geometricPrecision" shape-rendering="geometricPrecision" transform="matrix(1,0,0,1,-441,-184)" stroke="rgb(212,231,205)">
      <rect x="959" width="155" height="22" y="462" clip-path="url(#clipPath2)" stroke="none"/>
    </g>
    <g text-rendering="geometricPrecision" stroke-miterlimit="1.45" shape-rendering="geometricPrecision" transform="matrix(1,0,0,1,-441,-184)" stroke-linecap="butt">
      <rect fill="none" x="959" width="155" height="22" y="462" clip-path="url(#clipPath2)"/>
      <text x="967.3828" xml:space="preserve" y="477.5352" clip-path="url(#clipPath2)" font-family="sans-serif" stroke="none">Poll Handler From Node</text>
    </g>
    <g fill="rgb(201,222,241)" text-rendering="geometricPrecision" shape-rendering="geometricPrecision" transform="matrix(1,0,0,1,-441,-184)" stroke="rgb(201,222,241)">
      <rect x="963" width="420" height="75" y="445" clip-path="url(#clipPath2)" stroke="none"/>
    </g>
    <g text-rendering="geometricPrecision" stroke-miterlimit="1.45" shape-rendering="geometricPrecision" transform="matrix(1,0,0,1,-441,-184)" stroke-linecap="butt">
      <rect fill="none" x="963" width="420" height="75" y="445" clip-path="url(#clipPath2)"/>
      <text x="1097.6445" font-size="16px" y="468.2562" clip-path="url(#clipPath2)" font-family="sans-serif" stroke="none" xml:space="preserve">SubscriptionHandle</text>
    </g>
    <g fill="rgb(212,231,205)" text-rendering="geometricPrecision" shape-rendering="geometricPrecision" transform="matrix(1,0,0,1,-441,-184)" stroke="rgb(212,231,205)">
      <rect x="984" width="155" height="22" y="487" clip-path="url(#clipPath2)" stroke="none"/>
    </g>
    <g text-rendering="geometricPrecision" stroke-miterlimit="1.45" shape-rendering="geometricPrecision" transform="matrix(1,0,0,1,-441,-184)" stroke-linecap="butt">
      <rect fill="none" x="984" width="155" height="22" y="487" clip-path="url(#clipPath2)"/>
      <text x="992.3828" xml:space="preserve" y="502.5352" clip-path="url(#clipPath2)" font-family="sans-serif" stroke="none">Poll Handler From Node</text>
    </g>
    <g fill="rgb(201,222,241)" text-rendering="geometricPrecision" shape-rendering="geometricPrecision" transform="matrix(1,0,0,1,-441,-184)" stroke="rgb(201,222,241)">
      <rect x="988" width="420" height="75" y="470" clip-path="url(#clipPath2)" stroke="none"/>
    </g>
    <g text-rendering="geometricPrecision" stroke-miterlimit="1.45" shape-rendering="geometricPrecision" transform="matrix(1,0,0,1,-441,-184)" stroke-linecap="butt">
      <rect fill="none" x="988" width="420" height="75" y="470" clip-path="url(#clipPath2)"/>
      <text x="1122.6445" font-size="16px" y="493.2562" clip-path="url(#clipPath2)" font-family="sans-serif" stroke="none" xml:space="preserve">SubscriptionHandle</text>
    </g>
    <g fill="rgb(212,231,205)" text-rendering="geometricPrecision" shape-rendering="geometricPrecision" transform="matrix(1,0,0,1,-441,-184)" stroke="rgb(212,231,205)">
      <rect x="1009" width="155" height="22" y="512" clip-path="url(#clipPath2)" stroke="none"/>
    </g>
    <g text-rendering="geometricPrecision" stroke-miterlimit="1.45" shape-rendering="geometricPrecision" transform="matrix(1,0,0,1,-441,-184)" stroke-linecap="butt">
      <rect fill="none" x="1009" width="155" height="22" y="512" clip-path="url(#clipPath2)"/>
      <text x="1017.3828" xml:space="preserve" y="527.5352" clip-path="url(#clipPath2)" font-family="sans-serif" stroke="none">Poll Handler From Node</text>
    </g>
    <g fill="rgb(212,231,205)" text-rendering="geometricPrecision" shape-rendering="geometricPrecision" transform="matrix(1,0,0,1,-441,-184)" stroke="rgb(212,231,205)">
      <rect x="1226" width="155" height="22" y="512" clip-path="url(#clipPath2)" stroke="none"/>
    </g>
    <g text-rendering="geometricPrecision" stroke-miterlimit="1.45" shape-rendering="geometricPrecision" transform="matrix(1,0,0,1,-441,-184)" stroke-linecap="butt">
      <rect fill="none" x="1226" width="155" height="22" y="512" clip-path="url(#clipPath2)"/>
      <text x="1253.4141" xml:space="preserve" y="527.5352" clip-path="url(#clipPath2)" font-family="sans-serif" stroke="none">Subscribe stream</text>
      <text x="1018.236" font-size="16px" y="406.0469" clip-path="url(#clipPath2)" font-family="sans-serif" stroke="none" xml:space="preserve">Subscription handles (one per path)</text>
      <text x="665.9365" xml:space="preserve" y="344.5352" clip-path="url(#clipPath2)" font-family="sans-serif" stroke="none">1 - Subscribe poll</text>
      <text x="800.5752" xml:space="preserve" y="448.5352" clip-path="url(#clipPath2)" font-family="sans-serif" stroke="none">2 - Create handle</text>
      <text x="480.625" y="344.5352" clip-path="url(#clipPath2)" fill="red" font-family="sans-serif" stroke="none" xml:space="preserve">3 - Poll request</text>
      <text x="696.5039" y="537.5352" clip-path="url(#clipPath2)" fill="red" font-family="sans-serif" stroke="none" xml:space="preserve">4 - Pass PollEvent to handles</text>
      <text x="1068.0889" y="508.0352" clip-path="url(#clipPath2)" fill="red" font-family="sans-serif" stroke="none" xml:space="preserve">5 - Pass value from node handler to stream</text>
      <text x="909.3145" y="219.5352" clip-path="url(#clipPath2)" fill="red" font-family="sans-serif" stroke="none" xml:space="preserve">6 - Send gNMI notification to client</text>
      <path fill="none" d="M655 266 L655 427" clip-path="url(#clipPath2)"/>
      <path d="M655 435 L660 423 L655 426 L650 423 Z" clip-path="url(#clipPath2)" stroke="none"/>
      <path fill="none" d="M655 266 L655 427" clip-path="url(#clipPath2)"/>
      <path d="M655 435 L660 423 L655 426 L650 423 Z" clip-path="url(#clipPath2)" stroke="none"/>
      <path fill="none" d="M655 266 L655 427" clip-path="url(#clipPath2)"/>
      <path d="M655 435 L660 423 L655 426 L650 423 Z" clip-path="url(#clipPath2)" stroke="none"/>
      <path fill="none" d="M584.9738 243.5 L477.5954 243.5 L477.5954 457.5 L522.4742 457.5" clip-path="url(#clipPath2)" stroke="red"/>
      <path fill="red" d="M530.4742 457.5 L518.4742 452.5 L521.4742 457.5 L518.4742 462.5 Z" clip-path="url(#clipPath2)" stroke="none"/>
      <path fill="none" d="M779.5 457.5 L929.9613 457.5" clip-path="url(#clipPath2)"/>
      <path d="M937.9613 457.5 L925.9613 452.5 L928.9613 457.5 L925.9613 462.5 Z" clip-path="url(#clipPath2)" stroke="none"/>
      <path fill="none" d="M655 480 L655 491.9359 L818.5954 491.9359 L818.5954 473 L950.9657 473" clip-path="url(#clipPath2)" stroke="red"/>
      <path fill="red" d="M958.9657 473 L946.9657 468 L949.9657 473 L946.9657 478 Z" clip-path="url(#clipPath2)" stroke="none"/>
      <path fill="none" d="M779.5 457.5 L955.0284 481.4139" clip-path="url(#clipPath2)"/>
      <path d="M962.9552 482.4939 L951.74 475.9197 L954.0376 481.2789 L950.3901 485.8282 Z" clip-path="url(#clipPath2)" stroke="none"/>
      <path fill="none" d="M1370.783 444.9905 L1370.783 256.9264 L733.0179 256.9264" clip-path="url(#clipPath2)" stroke="red"/>
      <path fill="red" d="M725.0179 256.9264 L737.0179 261.9264 L734.0179 256.9264 L737.0179 251.9264 Z" clip-path="url(#clipPath2)" stroke="none"/>
      <path fill="none" d="M655 480 L655 498 L975.9598 498" clip-path="url(#clipPath2)" stroke="red"/>
      <path fill="red" d="M983.9598 498 L971.9598 493 L974.9598 498 L971.9598 503 Z" clip-path="url(#clipPath2)" stroke="none"/>
      <path fill="none" d="M779.5 457.5 L980.1951 505.6283" clip-path="url(#clipPath2)"/>
      <path d="M987.9745 507.4939 L977.4714 499.8334 L979.2227 505.3951 L975.1394 509.5577 Z" clip-path="url(#clipPath2)" stroke="none"/>
      <path fill="none" d="M1395.2827 469.9768 L1395.2827 243.5 L733 243.5" clip-path="url(#clipPath2)" stroke="red"/>
      <path fill="red" d="M725 243.5 L737 248.5 L734 243.5 L737 238.5 Z" clip-path="url(#clipPath2)" stroke="none"/>
      <path fill="none" d="M655 480 L655 523 L1001 523" clip-path="url(#clipPath2)" stroke="red"/>
      <path fill="red" d="M1009 523 L997 518 L1000 523 L997 528 Z" clip-path="url(#clipPath2)" stroke="none"/>
      <path fill="none" d="M1164 523 L1217.9697 523" clip-path="url(#clipPath2)" stroke="red"/>
      <path fill="red" d="M1225.9697 523 L1213.9697 518 L1216.9697 523 L1213.9697 528 Z" clip-path="url(#clipPath2)" stroke="none"/>
      <path fill="none" d="M1381 523 L1422 523 L1422 230.9989 L733.0035 230.9989" clip-path="url(#clipPath2)" stroke="red"/>
      <path fill="red" d="M725.0035 230.9989 L737.0035 235.9989 L734.0035 230.9989 L737.0035 225.9989 Z" clip-path="url(#clipPath2)" stroke="none"/>
    </g>
  </g>
</svg>
