<?xml version="1.0" encoding="UTF-8"?><svg xmlns="http://www.w3.org/2000/svg" xmlns:xlink="http://www.w3.org/1999/xlink" fill-opacity="1" color-rendering="auto" color-interpolation="auto" text-rendering="auto" stroke="black" stroke-linecap="square" width="1436" stroke-miterlimit="10" shape-rendering="auto" stroke-opacity="1" fill="black" stroke-dasharray="none" font-weight="normal" stroke-width="1" height="649" font-family="'Dialog'" font-style="normal" stroke-linejoin="miter" font-size="12px" stroke-dashoffset="0" image-rendering="auto">
  <!--Generated by ySVG 2.5-->
  <defs id="genericDefs"/>
  <g>
    <defs id="defs1">
      <clipPath clipPathUnits="userSpaceOnUse" id="clipPath1">
        <path d="M0 0 L1436 0 L1436 649 L0 649 L0 0 Z"/>
      </clipPath>
      <clipPath clipPathUnits="userSpaceOnUse" id="clipPath2">
        <path d="M201 256 L1637 256 L1637 905 L201 905 L201 256 Z"/>
      </clipPath>
    </defs>
    <g fill="white" text-rendering="geometricPrecision" shape-rendering="geometricPrecision" transform="translate(-201,-256)" stroke="white">
      <rect x="201" width="1436" height="649" y="256" clip-path="url(#clipPath2)" stroke="none"/>
    </g>
    <g fill="rgb(201,222,241)" text-rendering="geometricPrecision" shape-rendering="geometricPrecision" transform="matrix(1,0,0,1,-201,-256)" stroke="rgb(201,222,241)">
      <circle r="42" clip-path="url(#clipPath2)" cx="901" cy="340" stroke="none"/>
    </g>
    <g text-rendering="geometricPrecision" stroke-miterlimit="1.45" shape-rendering="geometricPrecision" transform="matrix(1,0,0,1,-201,-256)" stroke-linecap="butt">
      <circle fill="none" r="42" clip-path="url(#clipPath2)" cx="901" cy="340"/>
      <text x="877.1445" font-size="16px" y="346.0469" clip-path="url(#clipPath2)" font-family="sans-serif" stroke="none" xml:space="preserve">"Root"</text>
    </g>
    <g fill="rgb(201,222,241)" text-rendering="geometricPrecision" shape-rendering="geometricPrecision" transform="matrix(1,0,0,1,-201,-256)" stroke="rgb(201,222,241)">
      <circle r="42" clip-path="url(#clipPath2)" cx="901" cy="447" stroke="none"/>
    </g>
    <g text-rendering="geometricPrecision" stroke-miterlimit="1.45" shape-rendering="geometricPrecision" transform="matrix(1,0,0,1,-201,-256)" stroke-linecap="butt">
      <circle fill="none" r="42" clip-path="url(#clipPath2)" cx="901" cy="447"/>
      <text x="866.2812" font-size="16px" y="453.0469" clip-path="url(#clipPath2)" font-family="sans-serif" stroke="none" xml:space="preserve">intefaces</text>
    </g>
    <g fill="rgb(201,222,241)" text-rendering="geometricPrecision" shape-rendering="geometricPrecision" transform="matrix(1,0,0,1,-201,-256)" stroke="rgb(201,222,241)">
      <circle r="42" clip-path="url(#clipPath2)" cx="901" cy="554" stroke="none"/>
    </g>
    <g text-rendering="geometricPrecision" stroke-miterlimit="1.45" shape-rendering="geometricPrecision" transform="matrix(1,0,0,1,-201,-256)" stroke-linecap="butt">
      <circle fill="none" r="42" clip-path="url(#clipPath2)" cx="901" cy="554"/>
      <text x="870.3594" font-size="16px" y="560.0469" clip-path="url(#clipPath2)" font-family="sans-serif" stroke="none" xml:space="preserve">inteface</text>
    </g>
    <g fill="rgb(201,222,241)" text-rendering="geometricPrecision" shape-rendering="geometricPrecision" transform="matrix(1,0,0,1,-201,-256)" stroke="rgb(201,222,241)">
      <circle r="42" clip-path="url(#clipPath2)" cx="817" cy="636.0504" stroke="none"/>
    </g>
    <g text-rendering="geometricPrecision" stroke-miterlimit="1.45" shape-rendering="geometricPrecision" transform="matrix(1,0,0,1,-201,-256)" stroke-linecap="butt">
      <circle fill="none" r="42" clip-path="url(#clipPath2)" cx="817" cy="636.0504"/>
      <text x="793.4336" font-size="16px" y="642.0973" clip-path="url(#clipPath2)" font-family="sans-serif" stroke="none" xml:space="preserve">1/1/1</text>
    </g>
    <g fill="rgb(201,222,241)" text-rendering="geometricPrecision" shape-rendering="geometricPrecision" transform="matrix(1,0,0,1,-201,-256)" stroke="rgb(201,222,241)">
      <circle r="42" clip-path="url(#clipPath2)" cx="985" cy="638" stroke="none"/>
    </g>
    <g text-rendering="geometricPrecision" stroke-miterlimit="1.45" shape-rendering="geometricPrecision" transform="matrix(1,0,0,1,-201,-256)" stroke-linecap="butt">
      <circle fill="none" r="42" clip-path="url(#clipPath2)" cx="985" cy="638"/>
      <text x="961.4336" font-size="16px" y="644.0469" clip-path="url(#clipPath2)" font-family="sans-serif" stroke="none" xml:space="preserve">1/2/1</text>
    </g>
    <g fill="rgb(201,222,241)" text-rendering="geometricPrecision" shape-rendering="geometricPrecision" transform="matrix(1,0,0,1,-201,-256)" stroke="rgb(201,222,241)">
      <circle r="42" clip-path="url(#clipPath2)" cx="1069" cy="722" stroke="none"/>
    </g>
    <g text-rendering="geometricPrecision" stroke-miterlimit="1.45" shape-rendering="geometricPrecision" transform="matrix(1,0,0,1,-201,-256)" stroke-linecap="butt">
      <circle fill="none" r="42" clip-path="url(#clipPath2)" cx="1069" cy="722"/>
      <text x="1050.0625" font-size="16px" y="728.0469" clip-path="url(#clipPath2)" font-family="sans-serif" stroke="none" xml:space="preserve">state</text>
    </g>
    <g fill="rgb(201,222,241)" text-rendering="geometricPrecision" shape-rendering="geometricPrecision" transform="matrix(1,0,0,1,-201,-256)" stroke="rgb(201,222,241)">
      <circle r="42" clip-path="url(#clipPath2)" cx="733" cy="720.0504" stroke="none"/>
    </g>
    <g text-rendering="geometricPrecision" stroke-miterlimit="1.45" shape-rendering="geometricPrecision" transform="matrix(1,0,0,1,-201,-256)" stroke-linecap="butt">
      <circle fill="none" r="42" clip-path="url(#clipPath2)" cx="733" cy="720.0504"/>
      <text x="714.0625" font-size="16px" y="726.0973" clip-path="url(#clipPath2)" font-family="sans-serif" stroke="none" xml:space="preserve">state</text>
    </g>
    <g fill="rgb(201,222,241)" text-rendering="geometricPrecision" shape-rendering="geometricPrecision" transform="matrix(1,0,0,1,-201,-256)" stroke="rgb(201,222,241)">
      <circle r="42" clip-path="url(#clipPath2)" cx="649" cy="804.0504" stroke="none"/>
    </g>
    <g text-rendering="geometricPrecision" stroke-miterlimit="1.45" shape-rendering="geometricPrecision" transform="matrix(1,0,0,1,-201,-256)" stroke-linecap="butt">
      <circle fill="none" r="42" clip-path="url(#clipPath2)" cx="649" cy="804.0504"/>
      <text x="627.6914" font-size="16px" y="810.0973" clip-path="url(#clipPath2)" font-family="sans-serif" stroke="none" xml:space="preserve">name</text>
    </g>
    <g fill="rgb(201,222,241)" text-rendering="geometricPrecision" shape-rendering="geometricPrecision" transform="matrix(1,0,0,1,-201,-256)" stroke="rgb(201,222,241)">
      <circle r="42" clip-path="url(#clipPath2)" cx="1153" cy="806" stroke="none"/>
    </g>
    <g text-rendering="geometricPrecision" stroke-miterlimit="1.45" shape-rendering="geometricPrecision" transform="matrix(1,0,0,1,-201,-256)" stroke-linecap="butt">
      <circle fill="none" r="42" clip-path="url(#clipPath2)" cx="1153" cy="806"/>
      <text x="1131.6914" font-size="16px" y="812.0469" clip-path="url(#clipPath2)" font-family="sans-serif" stroke="none" xml:space="preserve">name</text>
      <path fill="none" d="M901 382 L901 397" clip-path="url(#clipPath2)"/>
      <path d="M901 405 L906 393 L901 396 L896 393 Z" clip-path="url(#clipPath2)" stroke="none"/>
      <path fill="none" d="M901 489 L901 504" clip-path="url(#clipPath2)"/>
      <path d="M901 512 L906 500 L901 503 L896 500 Z" clip-path="url(#clipPath2)" stroke="none"/>
      <path fill="none" d="M870.9549 583.3478 L852.768 601.1126" clip-path="url(#clipPath2)"/>
      <path d="M847.0451 606.7026 L859.1232 601.8944 L853.4834 600.4139 L852.1357 594.7408 Z" clip-path="url(#clipPath2)" stroke="none"/>
      <path fill="none" d="M930.6985 583.6985 L949.6447 602.6447" clip-path="url(#clipPath2)"/>
      <path d="M955.3015 608.3015 L950.3517 596.2807 L948.9376 601.9376 L943.2807 603.3517 Z" clip-path="url(#clipPath2)" stroke="none"/>
      <path fill="none" d="M1014.6985 667.6985 L1033.6447 686.6447" clip-path="url(#clipPath2)"/>
      <path d="M1039.3015 692.3015 L1034.3518 680.2807 L1032.9375 685.9376 L1027.2806 687.3517 Z" clip-path="url(#clipPath2)" stroke="none"/>
      <path fill="none" d="M787.3015 665.7489 L768.3553 684.6951" clip-path="url(#clipPath2)"/>
      <path d="M762.6985 690.3519 L774.7193 685.4022 L769.0624 683.988 L767.6483 678.3311 Z" clip-path="url(#clipPath2)" stroke="none"/>
      <path fill="none" d="M703.3015 749.7489 L684.3553 768.6951" clip-path="url(#clipPath2)"/>
      <path d="M678.6985 774.3519 L690.7193 769.4022 L685.0624 767.988 L683.6483 762.3311 Z" clip-path="url(#clipPath2)" stroke="none"/>
      <path fill="none" d="M1098.6985 751.6985 L1117.6447 770.6447" clip-path="url(#clipPath2)"/>
      <path d="M1123.3015 776.3015 L1118.3518 764.2807 L1116.9375 769.9376 L1111.2806 771.3517 Z" clip-path="url(#clipPath2)" stroke="none"/>
    </g>
  </g>
</svg>
