<?xml version="1.0" encoding="UTF-8"?><svg xmlns="http://www.w3.org/2000/svg" xmlns:xlink="http://www.w3.org/1999/xlink" fill-opacity="1" color-rendering="auto" color-interpolation="auto" text-rendering="auto" stroke="black" stroke-linecap="square" width="500" stroke-miterlimit="10" shape-rendering="auto" stroke-opacity="1" fill="black" stroke-dasharray="none" font-weight="normal" stroke-width="1" height="320" font-family="'Dialog'" font-style="normal" stroke-linejoin="miter" font-size="12px" stroke-dashoffset="0" image-rendering="auto">
  <!--Generated by ySVG 2.5-->
  <defs id="genericDefs"/>
  <g>
    <defs id="defs1">
      <clipPath clipPathUnits="userSpaceOnUse" id="clipPath1">
        <path d="M0 0 L500 0 L500 320 L0 320 L0 0 Z"/>
      </clipPath>
      <clipPath clipPathUnits="userSpaceOnUse" id="clipPath2">
        <path d="M68 338 L1042 338 L1042 961.36 L68 961.36 L68 338 Z"/>
      </clipPath>
    </defs>
    <g fill="white" text-rendering="geometricPrecision" shape-rendering="geometricPrecision" transform="scale(0.5133,0.5133) translate(-68,-338)" stroke="white">
      <rect x="68" width="974" height="624" y="338" clip-path="url(#clipPath2)" stroke="none"/>
    </g>
    <g fill="rgb(211,226,242)" text-rendering="geometricPrecision" shape-rendering="geometricPrecision" transform="matrix(0.5133,0,0,0.5133,-34.9076,-173.5113)" stroke="rgb(211,226,242)">
      <rect x="335" y="353" clip-path="url(#clipPath2)" width="523" rx="4" ry="4" height="496" stroke="none"/>
    </g>
    <g text-rendering="geometricPrecision" stroke-miterlimit="1.45" shape-rendering="geometricPrecision" transform="matrix(0.5133,0,0,0.5133,-34.9076,-173.5113)" stroke-linecap="butt">
      <rect x="335" y="353" clip-path="url(#clipPath2)" fill="none" width="523" rx="4" ry="4" height="496"/>
    </g>
    <g fill="rgb(189,214,172)" text-rendering="geometricPrecision" shape-rendering="geometricPrecision" transform="matrix(0.5133,0,0,0.5133,-34.9076,-173.5113)" stroke="rgb(189,214,172)">
      <rect x="560.5" y="766" clip-path="url(#clipPath2)" width="126" rx="4" ry="4" height="32" stroke="none"/>
    </g>
    <g text-rendering="geometricPrecision" stroke-miterlimit="1.45" shape-rendering="geometricPrecision" transform="matrix(0.5133,0,0,0.5133,-34.9076,-173.5113)" stroke-linecap="butt">
      <rect x="560.5" y="766" clip-path="url(#clipPath2)" fill="none" width="126" rx="4" ry="4" height="32"/>
      <text x="586.5098" xml:space="preserve" y="786.5352" clip-path="url(#clipPath2)" font-family="sans-serif" stroke="none">TAI Interface</text>
    </g>
    <g fill="rgb(170,194,240)" text-rendering="geometricPrecision" shape-rendering="geometricPrecision" transform="matrix(0.5133,0,0,0.5133,-34.9076,-173.5113)" stroke="rgb(170,194,240)">
      <rect x="585" y="370" clip-path="url(#clipPath2)" width="77" rx="4" ry="4" height="32" stroke="none"/>
    </g>
    <g text-rendering="geometricPrecision" stroke-miterlimit="1.45" shape-rendering="geometricPrecision" transform="matrix(0.5133,0,0,0.5133,-34.9076,-173.5113)" stroke-linecap="butt">
      <rect x="585" y="370" clip-path="url(#clipPath2)" fill="none" width="77" rx="4" ry="4" height="32"/>
      <text x="608.4297" xml:space="preserve" y="390.5352" clip-path="url(#clipPath2)" font-family="sans-serif" stroke="none">gNMI</text>
    </g>
    <g fill="rgb(170,194,240)" text-rendering="geometricPrecision" shape-rendering="geometricPrecision" transform="matrix(0.5133,0,0,0.5133,-34.9076,-173.5113)" stroke="rgb(170,194,240)">
      <rect x="526" y="443" clip-path="url(#clipPath2)" width="195" rx="4" ry="4" height="32" stroke="none"/>
    </g>
    <g text-rendering="geometricPrecision" stroke-miterlimit="1.45" shape-rendering="geometricPrecision" transform="matrix(0.5133,0,0,0.5133,-34.9076,-173.5113)" stroke-linecap="butt">
      <rect x="526" y="443" clip-path="url(#clipPath2)" fill="none" width="195" rx="4" ry="4" height="32"/>
      <text x="556.7471" xml:space="preserve" y="463.5352" clip-path="url(#clipPath2)" font-family="sans-serif" stroke="none">Switch Broker Interface</text>
    </g>
    <g fill="rgb(251,229,163)" text-rendering="geometricPrecision" shape-rendering="geometricPrecision" transform="matrix(0.5133,0,0,0.5133,-34.9076,-173.5113)" stroke="rgb(251,229,163)">
      <rect x="580" y="515" clip-path="url(#clipPath2)" width="87" rx="4" ry="4" height="32" stroke="none"/>
    </g>
    <g text-rendering="geometricPrecision" stroke-miterlimit="1.45" shape-rendering="geometricPrecision" transform="matrix(0.5133,0,0,0.5133,-34.9076,-173.5113)" stroke-linecap="butt">
      <rect x="580" y="515" clip-path="url(#clipPath2)" fill="none" width="87" rx="4" ry="4" height="32"/>
      <text x="608.4355" xml:space="preserve" y="535.5352" clip-path="url(#clipPath2)" font-family="sans-serif" stroke="none">PHAL</text>
    </g>
    <g fill="rgb(251,229,163)" text-rendering="geometricPrecision" shape-rendering="geometricPrecision" transform="matrix(0.5133,0,0,0.5133,-34.9076,-173.5113)" stroke="rgb(251,229,163)">
      <rect x="732.5" y="577" clip-path="url(#clipPath2)" width="87" rx="4" ry="4" height="32" stroke="none"/>
    </g>
    <g text-rendering="geometricPrecision" stroke-miterlimit="1.45" shape-rendering="geometricPrecision" transform="matrix(0.5133,0,0,0.5133,-34.9076,-173.5113)" stroke-linecap="butt">
      <rect x="732.5" y="577" clip-path="url(#clipPath2)" fill="none" width="87" rx="4" ry="4" height="32"/>
      <text x="749.375" xml:space="preserve" y="597.5352" clip-path="url(#clipPath2)" font-family="sans-serif" stroke="none">TAI PHAL</text>
    </g>
    <g fill="rgb(251,229,163)" text-rendering="geometricPrecision" shape-rendering="geometricPrecision" transform="matrix(0.5133,0,0,0.5133,-34.9076,-173.5113)" stroke="rgb(251,229,163)">
      <rect x="534.5" y="577" clip-path="url(#clipPath2)" width="178" rx="4" ry="4" height="32" stroke="none"/>
    </g>
    <g text-rendering="geometricPrecision" stroke-miterlimit="1.45" shape-rendering="geometricPrecision" transform="matrix(0.5133,0,0,0.5133,-34.9076,-173.5113)" stroke-linecap="butt">
      <rect x="534.5" y="577" clip-path="url(#clipPath2)" fill="none" width="178" rx="4" ry="4" height="32"/>
      <text x="554.292" xml:space="preserve" y="597.5352" clip-path="url(#clipPath2)" font-family="sans-serif" stroke="none">TAI Switch Configurator</text>
    </g>
    <g fill="rgb(251,229,163)" text-rendering="geometricPrecision" shape-rendering="geometricPrecision" transform="matrix(0.5133,0,0,0.5133,-34.9076,-173.5113)" stroke="rgb(251,229,163)">
      <rect x="388.5" y="644" clip-path="url(#clipPath2)" width="126" rx="4" ry="4" height="32" stroke="none"/>
    </g>
    <g text-rendering="geometricPrecision" stroke-miterlimit="1.45" shape-rendering="geometricPrecision" transform="matrix(0.5133,0,0,0.5133,-34.9076,-173.5113)" stroke-linecap="butt">
      <rect x="388.5" y="644" clip-path="url(#clipPath2)" fill="none" width="126" rx="4" ry="4" height="32"/>
      <text x="407.6807" xml:space="preserve" y="664.5352" clip-path="url(#clipPath2)" font-family="sans-serif" stroke="none">PHAL Database</text>
    </g>
    <g fill="rgb(251,229,163)" text-rendering="geometricPrecision" shape-rendering="geometricPrecision" transform="matrix(0.5133,0,0,0.5133,-34.9076,-173.5113)" stroke="rgb(251,229,163)">
      <rect x="388.5" y="577" clip-path="url(#clipPath2)" width="126" rx="4" ry="4" height="32" stroke="none"/>
    </g>
    <g text-rendering="geometricPrecision" stroke-miterlimit="1.45" shape-rendering="geometricPrecision" transform="matrix(0.5133,0,0,0.5133,-34.9076,-173.5113)" stroke-linecap="butt">
      <rect x="388.5" y="577" clip-path="url(#clipPath2)" fill="none" width="126" rx="4" ry="4" height="32"/>
      <text x="406.0166" xml:space="preserve" y="597.5352" clip-path="url(#clipPath2)" font-family="sans-serif" stroke="none">Optical Adapter</text>
    </g>
    <g fill="rgb(251,229,163)" text-rendering="geometricPrecision" shape-rendering="geometricPrecision" transform="matrix(0.5133,0,0,0.5133,-34.9076,-173.5113)" stroke="rgb(251,229,163)">
      <rect x="362.5" y="711" clip-path="url(#clipPath2)" width="178" rx="4" ry="4" height="32" stroke="none"/>
    </g>
    <g text-rendering="geometricPrecision" stroke-miterlimit="1.45" shape-rendering="geometricPrecision" transform="matrix(0.5133,0,0,0.5133,-34.9076,-173.5113)" stroke-linecap="butt">
      <rect x="362.5" y="711" clip-path="url(#clipPath2)" fill="none" width="178" rx="4" ry="4" height="32"/>
      <text x="405.1641" xml:space="preserve" y="731.5352" clip-path="url(#clipPath2)" font-family="sans-serif" stroke="none">TAI Data Source</text>
    </g>
    <g fill="rgb(178,168,211)" text-rendering="geometricPrecision" shape-rendering="geometricPrecision" transform="matrix(0.5133,0,0,0.5133,-34.9076,-173.5113)" stroke="rgb(178,168,211)">
      <rect x="560.5" y="798" clip-path="url(#clipPath2)" width="126" rx="4" ry="4" height="32" stroke="none"/>
    </g>
    <g text-rendering="geometricPrecision" stroke-miterlimit="1.45" shape-rendering="geometricPrecision" transform="matrix(0.5133,0,0,0.5133,-34.9076,-173.5113)" stroke-linecap="butt">
      <rect x="560.5" y="798" clip-path="url(#clipPath2)" fill="none" width="126" rx="4" ry="4" height="32"/>
      <text x="587.6875" xml:space="preserve" y="818.5352" clip-path="url(#clipPath2)" font-family="sans-serif" stroke="none">TAI Wrapper</text>
    </g>
    <g fill="rgb(178,168,211)" text-rendering="geometricPrecision" shape-rendering="geometricPrecision" transform="matrix(0.5133,0,0,0.5133,-34.9076,-173.5113)" stroke="rgb(178,168,211)">
      <rect x="478" y="916" clip-path="url(#clipPath2)" width="126" rx="4" ry="4" height="32" stroke="none"/>
    </g>
    <g text-rendering="geometricPrecision" stroke-miterlimit="1.45" shape-rendering="geometricPrecision" transform="matrix(0.5133,0,0,0.5133,-34.9076,-173.5113)" stroke-linecap="butt">
      <rect x="478" y="916" clip-path="url(#clipPath2)" fill="none" width="126" rx="4" ry="4" height="32"/>
      <text x="495.8418" xml:space="preserve" y="936.5352" clip-path="url(#clipPath2)" font-family="sans-serif" stroke="none">TAI Shell Server</text>
    </g>
    <g fill="rgb(178,168,211)" text-rendering="geometricPrecision" shape-rendering="geometricPrecision" transform="matrix(0.5133,0,0,0.5133,-34.9076,-173.5113)" stroke="rgb(178,168,211)">
      <rect x="634" y="916" clip-path="url(#clipPath2)" width="126" rx="4" ry="4" height="32" stroke="none"/>
    </g>
    <g text-rendering="geometricPrecision" stroke-miterlimit="1.45" shape-rendering="geometricPrecision" transform="matrix(0.5133,0,0,0.5133,-34.9076,-173.5113)" stroke-linecap="butt">
      <rect x="634" y="916" clip-path="url(#clipPath2)" fill="none" width="126" rx="4" ry="4" height="32"/>
      <text x="673.8203" xml:space="preserve" y="936.5352" clip-path="url(#clipPath2)" font-family="sans-serif" stroke="none">libtai.so</text>
      <rect fill="none" x="309" width="1" height="1" y="501.5" clip-path="url(#clipPath2)"/>
      <rect fill="none" x="903" width="1" height="1" y="501.5" clip-path="url(#clipPath2)"/>
      <text x="884.5508" xml:space="preserve" y="426.4023" clip-path="url(#clipPath2)" font-family="sans-serif" stroke="none">gNMI and Stratum types</text>
      <text x="884.5508" xml:space="preserve" y="440.5352" clip-path="url(#clipPath2)" font-family="sans-serif" stroke="none">gNMI.proto</text>
      <text x="884.5508" xml:space="preserve" y="454.668" clip-path="url(#clipPath2)" font-family="sans-serif" stroke="none">common.proto</text>
      <text x="886.9619" xml:space="preserve" y="554.8359" clip-path="url(#clipPath2)" font-family="sans-serif" stroke="none">Stratum common types</text>
      <text x="886.9619" xml:space="preserve" y="568.9688" clip-path="url(#clipPath2)" font-family="sans-serif" stroke="none">common.proto</text>
      <text x="886.9619" xml:space="preserve" y="583.1016" clip-path="url(#clipPath2)" font-family="sans-serif" stroke="none">phal.proto</text>
      <text x="886.9619" xml:space="preserve" y="597.2344" clip-path="url(#clipPath2)" font-family="sans-serif" stroke="none">db.proto</text>
      <rect fill="none" x="905" width="1" height="1" y="861" clip-path="url(#clipPath2)"/>
      <rect fill="none" x="304" width="1" height="1" y="861" clip-path="url(#clipPath2)"/>
      <text x="882.1807" xml:space="preserve" y="899.4023" clip-path="url(#clipPath2)" font-family="sans-serif" stroke="none">TAI types</text>
      <text x="882.1807" xml:space="preserve" y="913.5352" clip-path="url(#clipPath2)" font-family="sans-serif" stroke="none">taish.proto</text>
      <text x="882.1807" xml:space="preserve" y="927.668" clip-path="url(#clipPath2)" font-family="sans-serif" stroke="none">taitypes.h</text>
      <path fill="none" d="M623.5 402.0044 L623.5 442.9978" clip-path="url(#clipPath2)"/>
      <path fill="none" d="M623.5 474.9961 L623.5 515.0028" clip-path="url(#clipPath2)"/>
      <path fill="none" d="M662.8536 546.9995 L736.6364 576.9964" clip-path="url(#clipPath2)"/>
      <path fill="none" d="M763.0993 608.9884 L636.4 766.0125" clip-path="url(#clipPath2)"/>
      <path fill="none" d="M623.5 547.0146 L623.5 576.968" clip-path="url(#clipPath2)"/>
      <path fill="none" d="M623.5 609.0115 L623.5 765.9935" clip-path="url(#clipPath2)"/>
      <path fill="none" d="M574 608.9893 L574 660 L514.5145 660" clip-path="url(#clipPath2)"/>
      <path fill="none" d="M581.5498 546.1216 L495.8554 577.0114" clip-path="url(#clipPath2)"/>
      <path fill="none" d="M451.5 608.9976 L451.5 644.0119" clip-path="url(#clipPath2)"/>
      <path fill="none" d="M451.5 675.9976 L451.5 711.0119" clip-path="url(#clipPath2)"/>
      <path fill="none" d="M501.5127 742.9924 L573.4363 765.9913" clip-path="url(#clipPath2)"/>
      <path fill="none" d="M612.3214 829.9888 L552.1962 915.986" clip-path="url(#clipPath2)"/>
      <text x="531.7339" xml:space="preserve" y="875.9734" clip-path="url(#clipPath2)" font-family="sans-serif" stroke="none">gRPC</text>
      <path fill="none" d="M633.4591 829.9888 L687.0252 915.986" clip-path="url(#clipPath2)"/>
      <text x="674.7009" xml:space="preserve" y="879.6378" clip-path="url(#clipPath2)" font-family="sans-serif" stroke="none">TAI C++ API</text>
      <path fill="none" stroke-dasharray="6,2" d="M310 502 L903 502" clip-path="url(#clipPath2)"/>
      <path fill="none" stroke-dasharray="6,2" d="M305 861.5 L905 861.5" clip-path="url(#clipPath2)"/>
    </g>
  </g>
</svg>
