<?xml version="1.0" encoding="UTF-8"?><svg xmlns="http://www.w3.org/2000/svg" xmlns:xlink="http://www.w3.org/1999/xlink" fill-opacity="1" color-rendering="auto" color-interpolation="auto" text-rendering="auto" stroke="black" stroke-linecap="square" width="500" stroke-miterlimit="10" shape-rendering="auto" stroke-opacity="1" fill="black" stroke-dasharray="none" font-weight="normal" stroke-width="1" height="173" font-family="'Dialog'" font-style="normal" stroke-linejoin="miter" font-size="12px" stroke-dashoffset="0" image-rendering="auto">
  <!--Generated by ySVG 2.5-->
  <defs id="genericDefs"/>
  <g>
    <defs id="defs1">
      <clipPath clipPathUnits="userSpaceOnUse" id="clipPath1">
        <path d="M0 0 L500 0 L500 173 L0 173 L0 0 Z"/>
      </clipPath>
      <clipPath clipPathUnits="userSpaceOnUse" id="clipPath2">
        <path d="M172 222 L872 222 L872 464.2 L172 464.2 L172 222 Z"/>
      </clipPath>
    </defs>
    <g fill="white" text-rendering="geometricPrecision" shape-rendering="geometricPrecision" transform="scale(0.7143,0.7143) translate(-172,-222)" stroke="white">
      <rect x="172" width="700" height="243" y="222" clip-path="url(#clipPath2)" stroke="none"/>
    </g>
    <g fill="rgb(251,229,163)" text-rendering="geometricPrecision" shape-rendering="geometricPrecision" transform="matrix(0.7143,0,0,0.7143,-122.8571,-158.5714)" stroke="rgb(251,229,163)">
      <rect x="187" width="188" height="76" y="359.5" clip-path="url(#clipPath2)" stroke="none"/>
    </g>
    <g text-rendering="geometricPrecision" stroke-miterlimit="1.45" shape-rendering="geometricPrecision" transform="matrix(0.7143,0,0,0.7143,-122.8571,-158.5714)" stroke-linecap="butt">
      <rect fill="none" x="187" width="188" height="76" y="359.5" clip-path="url(#clipPath2)"/>
      <text x="231.5273" font-size="16px" y="403.5469" clip-path="url(#clipPath2)" font-family="sans-serif" stroke="none" xml:space="preserve">Transponder</text>
    </g>
    <g fill="rgb(251,229,163)" text-rendering="geometricPrecision" shape-rendering="geometricPrecision" transform="matrix(0.7143,0,0,0.7143,-122.8571,-158.5714)" stroke="rgb(251,229,163)">
      <rect x="187" width="188" height="76" y="257.5" clip-path="url(#clipPath2)" stroke="none"/>
    </g>
    <g text-rendering="geometricPrecision" stroke-miterlimit="1.45" shape-rendering="geometricPrecision" transform="matrix(0.7143,0,0,0.7143,-122.8571,-158.5714)" stroke-linecap="butt">
      <rect fill="none" x="187" width="188" height="76" y="257.5" clip-path="url(#clipPath2)"/>
      <text x="231.5273" font-size="16px" y="301.5469" clip-path="url(#clipPath2)" font-family="sans-serif" stroke="none" xml:space="preserve">Transponder</text>
    </g>
    <g fill="rgb(178,168,211)" text-rendering="geometricPrecision" shape-rendering="geometricPrecision" transform="matrix(0.7143,0,0,0.7143,-122.8571,-158.5714)" stroke="rgb(178,168,211)">
      <rect x="669" width="188" height="213" y="237" clip-path="url(#clipPath2)" stroke="none"/>
    </g>
    <g text-rendering="geometricPrecision" stroke-miterlimit="1.45" shape-rendering="geometricPrecision" transform="matrix(0.7143,0,0,0.7143,-122.8571,-158.5714)" stroke-linecap="butt">
      <rect fill="none" x="669" width="188" height="213" y="237" clip-path="url(#clipPath2)"/>
      <text x="705.6953" font-size="16px" y="349.5469" clip-path="url(#clipPath2)" font-family="sans-serif" stroke="none" xml:space="preserve">Switching ASIC</text>
    </g>
    <g fill="rgb(211,226,242)" text-rendering="geometricPrecision" shape-rendering="geometricPrecision" transform="matrix(0.7143,0,0,0.7143,-122.8571,-158.5714)" stroke="rgb(211,226,242)">
      <rect x="424" width="224" height="213" y="237" clip-path="url(#clipPath2)" stroke="none"/>
    </g>
    <g text-rendering="geometricPrecision" stroke-miterlimit="1.45" shape-rendering="geometricPrecision" transform="matrix(0.7143,0,0,0.7143,-122.8571,-158.5714)" stroke-linecap="butt">
      <rect fill="none" x="424" width="224" height="213" y="237" clip-path="url(#clipPath2)"/>
      <text x="514.5693" xml:space="preserve" y="259.6044" clip-path="url(#clipPath2)" font-family="sans-serif" stroke="none">Module</text>
    </g>
    <g fill="rgb(212,231,205)" text-rendering="geometricPrecision" shape-rendering="geometricPrecision" transform="matrix(0.7143,0,0,0.7143,-122.8571,-158.5714)" stroke="rgb(212,231,205)">
      <rect x="342" width="170" height="35" y="278" clip-path="url(#clipPath2)" stroke="none"/>
    </g>
    <g text-rendering="geometricPrecision" stroke-miterlimit="1.45" shape-rendering="geometricPrecision" transform="matrix(0.7143,0,0,0.7143,-122.8571,-158.5714)" stroke-linecap="butt">
      <rect fill="none" x="342" width="170" height="35" y="278" clip-path="url(#clipPath2)"/>
      <text x="375.3818" xml:space="preserve" y="300.0352" clip-path="url(#clipPath2)" font-family="sans-serif" stroke="none">Network Interface</text>
    </g>
    <g fill="rgb(212,231,205)" text-rendering="geometricPrecision" shape-rendering="geometricPrecision" transform="matrix(0.7143,0,0,0.7143,-122.8571,-158.5714)" stroke="rgb(212,231,205)">
      <rect x="342" width="170" height="35" y="380" clip-path="url(#clipPath2)" stroke="none"/>
    </g>
    <g text-rendering="geometricPrecision" stroke-miterlimit="1.45" shape-rendering="geometricPrecision" transform="matrix(0.7143,0,0,0.7143,-122.8571,-158.5714)" stroke-linecap="butt">
      <rect fill="none" x="342" width="170" height="35" y="380" clip-path="url(#clipPath2)"/>
      <text x="375.3818" xml:space="preserve" y="402.0352" clip-path="url(#clipPath2)" font-family="sans-serif" stroke="none">Network Interface</text>
    </g>
    <g fill="rgb(212,231,205)" text-rendering="geometricPrecision" shape-rendering="geometricPrecision" transform="matrix(0.7143,0,0,0.7143,-122.8571,-158.5714)" stroke="rgb(212,231,205)">
      <rect x="550" width="170" height="35" y="278" clip-path="url(#clipPath2)" stroke="none"/>
    </g>
    <g text-rendering="geometricPrecision" stroke-miterlimit="1.45" shape-rendering="geometricPrecision" transform="matrix(0.7143,0,0,0.7143,-122.8571,-158.5714)" stroke-linecap="butt">
      <rect fill="none" x="550" width="170" height="35" y="278" clip-path="url(#clipPath2)"/>
      <text x="594.2744" xml:space="preserve" y="300.0352" clip-path="url(#clipPath2)" font-family="sans-serif" stroke="none">Host Interface</text>
    </g>
    <g fill="rgb(212,231,205)" text-rendering="geometricPrecision" shape-rendering="geometricPrecision" transform="matrix(0.7143,0,0,0.7143,-122.8571,-158.5714)" stroke="rgb(212,231,205)">
      <rect x="550" width="170" height="35" y="380" clip-path="url(#clipPath2)" stroke="none"/>
    </g>
    <g text-rendering="geometricPrecision" stroke-miterlimit="1.45" shape-rendering="geometricPrecision" transform="matrix(0.7143,0,0,0.7143,-122.8571,-158.5714)" stroke-linecap="butt">
      <rect fill="none" x="550" width="170" height="35" y="380" clip-path="url(#clipPath2)"/>
      <text x="594.2744" xml:space="preserve" y="402.0352" clip-path="url(#clipPath2)" font-family="sans-serif" stroke="none">Host Interface</text>
    </g>
  </g>
</svg>
